<?xml version="1.0" encoding="UTF-8" standalone="no"?>
<!DOCTYPE svg PUBLIC "-//W3C//DTD SVG 1.1//EN"
 "http://www.w3.org/Graphics/SVG/1.1/DTD/svg11.dtd">
<!-- Generated by graphviz version 14.1.4 (20260321.0153)
 -->
<!-- Title: on_transmit Pages: 1 -->
<svg width="279pt" height="93pt"
 viewBox="0.00 0.00 279.00 93.00" xmlns="http://www.w3.org/2000/svg" xmlns:xlink="http://www.w3.org/1999/xlink">
<g id="graph0" class="graph" transform="scale(1 1) rotate(0) translate(4 88.5)">
<title>on_transmit</title>
<!-- Node1 -->
<g id="Node000001" class="node">
<title>Node1</title>
<g id="a_Node000001"><a xlink:title="Callback de transmissão (Slave &#45;&gt; Master).">
<polygon fill="#999999" stroke="#666666" points="270.75,-70 203.75,-70 203.75,-50 270.75,-50 270.75,-70"/>
<text xml:space="preserve" text-anchor="middle" x="237.25" y="-56.5" font-family="Helvetica,sans-Serif" font-size="10.00">on_transmit</text>
</a>
</g>
</g>
<!-- Node2 -->
<g id="Node000002" class="node">
<title>Node2</title>
<g id="a_Node000002"><a xlink:href="example2_8c.html#a840291bc02cba5474a4cb46a9b9566fe" target="_top" xlink:title="Ponto de entrada do Slave.">
<polygon fill="white" stroke="#666666" points="37,-67 0,-67 0,-47 37,-47 37,-67"/>
<text xml:space="preserve" text-anchor="middle" x="18.5" y="-53.5" font-family="Helvetica,sans-Serif" font-size="10.00">main</text>
</a>
</g>
</g>
<!-- Node1&#45;&gt;Node2 -->
<g id="edge1_Node000001_Node000002" class="edge">
<title>Node1&#45;&gt;Node2</title>
<g id="a_edge1_Node000001_Node000002"><a xlink:title=" ">
<path fill="none" stroke="#63b8ff" d="M194.76,-73.44C185.93,-75.75 176.61,-77.79 167.75,-79 126.02,-84.68 114.31,-87.16 73,-79 60.59,-76.55 47.43,-71.18 37.27,-66.36"/>
<polygon fill="#63b8ff" stroke="#63b8ff" points="195.44,-76.88 204.13,-70.82 193.56,-70.14 195.44,-76.88"/>
</a>
</g>
</g>
<!-- Node3 -->
<g id="Node000003" class="node">
<title>Node3</title>
<g id="a_Node000003"><a xlink:href="twi_8h.html#ace0b103ca42c617be55ddc1507dcc4ca" target="_top" xlink:title="Verifica se o barramento TWI está disponível para uma nova transação.">
<polygon fill="white" stroke="#666666" points="162.5,-70 78.25,-70 78.25,-50 162.5,-50 162.5,-70"/>
<text xml:space="preserve" text-anchor="middle" x="120.38" y="-56.5" font-family="Helvetica,sans-Serif" font-size="10.00">twi_bus_is_free</text>
</a>
</g>
</g>
<!-- Node1&#45;&gt;Node3 -->
<g id="edge2_Node000001_Node000003" class="edge">
<title>Node1&#45;&gt;Node3</title>
<g id="a_edge2_Node000001_Node000003"><a xlink:title=" ">
<path fill="none" stroke="#63b8ff" d="M192,-60C182.44,-60 172.36,-60 162.9,-60"/>
<polygon fill="#63b8ff" stroke="#63b8ff" points="191.82,-63.5 201.82,-60 191.82,-56.5 191.82,-63.5"/>
</a>
</g>
</g>
<!-- Node4 -->
<g id="Node000004" class="node">
<title>Node4</title>
<g id="a_Node000004"><a xlink:href="twi_8c.html#a34c56c0dd6b7b72b6d7eb3b2b1ec4b00" target="_top" xlink:title="Registra os callbacks de eventos para o modo Slave.">
<polygon fill="white" stroke="#666666" points="167.75,-32 73,-32 73,0 167.75,0 167.75,-32"/>
<text xml:space="preserve" text-anchor="start" x="81" y="-18.5" font-family="Helvetica,sans-Serif" font-size="10.00">twi_slave_register</text>
<text xml:space="preserve" text-anchor="middle" x="120.38" y="-6.5" font-family="Helvetica,sans-Serif" font-size="10.00">_callbacks</text>
</a>
</g>
</g>
<!-- Node1&#45;&gt;Node4 -->
<g id="edge3_Node000001_Node000004" class="edge">
<title>Node1&#45;&gt;Node4</title>
<g id="a_edge3_Node000001_Node000004"><a xlink:title=" ">
<path fill="none" stroke="#63b8ff" d="M198.47,-45.53C187.48,-41.32 175.4,-36.69 164.12,-32.37"/>
<polygon fill="#63b8ff" stroke="#63b8ff" points="197.02,-48.72 207.61,-49.03 199.53,-42.19 197.02,-48.72"/>
</a>
</g>
</g>
<!-- Node4&#45;&gt;Node2 -->
<g id="edge4_Node000004_Node000002" class="edge">
<title>Node4&#45;&gt;Node2</title>
<g id="a_edge4_Node000004_Node000002"><a xlink:title=" ">
<path fill="none" stroke="#63b8ff" d="M68.98,-36.69C57.64,-41.34 46.34,-45.98 37.4,-49.65"/>
<polygon fill="#63b8ff" stroke="#63b8ff" points="70.01,-40.05 77.93,-33.01 67.35,-33.57 70.01,-40.05"/>
</a>
</g>
</g>
</g>
</svg>
