<?xml version="1.0" encoding="UTF-8" standalone="no"?>
<!DOCTYPE svg PUBLIC "-//W3C//DTD SVG 1.1//EN"
 "http://www.w3.org/Graphics/SVG/1.1/DTD/svg11.dtd">
<!-- Generated by graphviz version 14.1.4 (20260321.0153)
 -->
<!-- Title: main Pages: 1 -->
<svg width="473pt" height="254pt"
 viewBox="0.00 0.00 473.00 254.00" xmlns="http://www.w3.org/2000/svg" xmlns:xlink="http://www.w3.org/1999/xlink">

<svg id="main" version="1.1" xmlns="http://www.w3.org/2000/svg" xmlns:xlink="http://www.w3.org/1999/xlink" xml:space="preserve">

<style type="text/css"><![CDATA[
.node, .edge {opacity: 0.7;}
.node.selected, .edge.selected {opacity: 1;}
.edge:hover path { stroke: red; }
.edge:hover polygon { stroke: red; fill: red; }
]]></style>
<script type="application/ecmascript" xlink:href="svg.min.js"/>
<svg id="graph" class="graph">
<g id="graph0" class="graph" transform="scale(1 1) rotate(0) translate(4 249.92)">
<title>main</title>
<!-- Node1 -->
<g id="Node000001" class="node">
<title>Node1</title>
<g id="a_Node000001"><a xlink:title="Ponto de entrada principal da aplicação.">
<polygon fill="#999999" stroke="#666666" points="37,-134 0,-134 0,-114 37,-114 37,-134"/>
<text xml:space="preserve" text-anchor="middle" x="18.5" y="-120.5" font-family="Helvetica,sans-Serif" font-size="10.00">main</text>
</a>
</g>
</g>
<!-- Node2 -->
<g id="Node000002" class="node">
<title>Node2</title>
<g id="a_Node000002"><a xlink:href="example1_8c.html#ad9b05939593a1d19d76cdd8ea94edb17" target="_top" xlink:title="Callback de conclusão para transações Master.">
<polygon fill="white" stroke="#666666" points="297.75,-216 226.25,-216 226.25,-196 297.75,-196 297.75,-216"/>
<text xml:space="preserve" text-anchor="middle" x="262" y="-202.5" font-family="Helvetica,sans-Serif" font-size="10.00">on_complete</text>
</a>
</g>
</g>
<!-- Node1&#45;&gt;Node2 -->
<g id="edge1_Node000001_Node000002" class="edge">
<title>Node1&#45;&gt;Node2</title>
<g id="a_edge1_Node000001_Node000002"><a xlink:title=" ">
<path fill="none" stroke="#63b8ff" d="M21.05,-134.32C25.02,-156.67 37.84,-209.27 73,-231 121.9,-261.22 191.54,-238.59 230.89,-221.15"/>
<polygon fill="#63b8ff" stroke="#63b8ff" points="232.16,-224.42 239.77,-217.05 229.22,-218.06 232.16,-224.42"/>
</a>
</g>
</g>
<!-- Node3 -->
<g id="Node000003" class="node">
<title>Node3</title>
<g id="a_Node000003"><a xlink:href="example1_8c.html#a30c5ce81613c9030d0f20e4c556f384e" target="_top" xlink:title="Envia uma string via UART0.">
<polygon fill="white" stroke="#666666" points="465.25,-194 336,-194 336,-174 465.25,-174 465.25,-194"/>
<text xml:space="preserve" text-anchor="middle" x="400.62" y="-180.5" font-family="Helvetica,sans-Serif" font-size="10.00">USART_Transmite_String</text>
</a>
</g>
</g>
<!-- Node1&#45;&gt;Node3 -->
<g id="edge10_Node000001_Node000003" class="edge">
<title>Node1&#45;&gt;Node3</title>
<g id="a_edge10_Node000001_Node000003"><a xlink:title=" ">
<path fill="none" stroke="#63b8ff" d="M37.04,-131.31C47.35,-135.34 60.72,-140.09 73,-143 157.89,-163.15 257.69,-173.85 324.43,-179.2"/>
<polygon fill="#63b8ff" stroke="#63b8ff" points="323.92,-182.67 334.16,-179.96 324.47,-175.69 323.92,-182.67"/>
</a>
</g>
</g>
<!-- Node4 -->
<g id="Node000004" class="node">
<title>Node4</title>
<g id="a_Node000004"><a xlink:href="twi_8c.html#a839dfadc1a40b5a4016c5794bba521e3" target="_top" xlink:title="Inicializa o módulo TWI.">
<polygon fill="white" stroke="#666666" points="153.88,-134 107.12,-134 107.12,-114 153.88,-114 153.88,-134"/>
<text xml:space="preserve" text-anchor="middle" x="130.5" y="-120.5" font-family="Helvetica,sans-Serif" font-size="10.00">twi_init</text>
</a>
</g>
</g>
<!-- Node1&#45;&gt;Node4 -->
<g id="edge3_Node000001_Node000004" class="edge">
<title>Node1&#45;&gt;Node4</title>
<g id="a_edge3_Node000001_Node000004"><a xlink:title=" ">
<path fill="none" stroke="#63b8ff" d="M37.17,-124C52.86,-124 76.23,-124 95.53,-124"/>
<polygon fill="#63b8ff" stroke="#63b8ff" points="95.4,-127.5 105.4,-124 95.4,-120.5 95.4,-127.5"/>
</a>
</g>
</g>
<!-- Node6 -->
<g id="Node000006" class="node">
<title>Node6</title>
<g id="a_Node000006"><a xlink:href="twi_8c.html#a21f0cd2bbdf528b20ad08d8e1284693e" target="_top" xlink:title="Registra os callbacks de eventos para o modo Master.">
<polygon fill="white" stroke="#666666" points="181.25,-222 79.75,-222 79.75,-190 181.25,-190 181.25,-222"/>
<text xml:space="preserve" text-anchor="start" x="87.75" y="-208.5" font-family="Helvetica,sans-Serif" font-size="10.00">twi_master_register</text>
<text xml:space="preserve" text-anchor="middle" x="130.5" y="-196.5" font-family="Helvetica,sans-Serif" font-size="10.00">_callbacks</text>
</a>
</g>
</g>
<!-- Node1&#45;&gt;Node6 -->
<g id="edge5_Node000001_Node000006" class="edge">
<title>Node1&#45;&gt;Node6</title>
<g id="a_edge5_Node000001_Node000006"><a xlink:title=" ">
<path fill="none" stroke="#63b8ff" d="M28.61,-134.47C38.7,-145.67 55.83,-163.49 73,-176 76.79,-178.76 80.86,-181.42 85.02,-183.95"/>
<polygon fill="#63b8ff" stroke="#63b8ff" points="83.08,-186.87 93.49,-188.82 86.57,-180.8 83.08,-186.87"/>
</a>
</g>
</g>
<!-- Node7 -->
<g id="Node000007" class="node">
<title>Node7</title>
<g id="a_Node000007"><a xlink:href="twi_8c.html#a38c82f66267f7ed48a1342358563429d" target="_top" xlink:title="Inicia leitura assíncrona de dados como Master.">
<polygon fill="white" stroke="#666666" points="186.88,-96 74.12,-96 74.12,-76 186.88,-76 186.88,-96"/>
<text xml:space="preserve" text-anchor="middle" x="130.5" y="-82.5" font-family="Helvetica,sans-Serif" font-size="10.00">twi_master_start_read</text>
</a>
</g>
</g>
<!-- Node1&#45;&gt;Node7 -->
<g id="edge7_Node000001_Node000007" class="edge">
<title>Node1&#45;&gt;Node7</title>
<g id="a_edge7_Node000001_Node000007"><a xlink:title=" ">
<path fill="none" stroke="#63b8ff" d="M37.31,-117.59C47.7,-113.87 61.08,-109.12 73,-105 77.69,-103.38 82.61,-101.7 87.51,-100.03"/>
<polygon fill="#63b8ff" stroke="#63b8ff" points="88.3,-103.46 96.65,-96.94 86.06,-96.83 88.3,-103.46"/>
</a>
</g>
</g>
<!-- Node8 -->
<g id="Node000008" class="node">
<title>Node8</title>
<g id="a_Node000008"><a xlink:href="twi_8c.html#ac30e0e60dc0456b3995368912e96e8f2" target="_top" xlink:title="Inicia envio assíncrono de dados como Master.">
<polygon fill="white" stroke="#666666" points="188,-58 73,-58 73,-38 188,-38 188,-58"/>
<text xml:space="preserve" text-anchor="middle" x="130.5" y="-44.5" font-family="Helvetica,sans-Serif" font-size="10.00">twi_master_start_write</text>
</a>
</g>
</g>
<!-- Node1&#45;&gt;Node8 -->
<g id="edge8_Node000001_Node000008" class="edge">
<title>Node1&#45;&gt;Node8</title>
<g id="a_edge8_Node000001_Node000008"><a xlink:title=" ">
<path fill="none" stroke="#63b8ff" d="M26.66,-113.69C35.96,-101.01 53.36,-79.61 73,-67 75.12,-65.64 77.35,-64.36 79.65,-63.17"/>
<polygon fill="#63b8ff" stroke="#63b8ff" points="81,-66.4 88.67,-59.08 78.11,-60.02 81,-66.4"/>
</a>
</g>
</g>
<!-- Node9 -->
<g id="Node000009" class="node">
<title>Node9</title>
<g id="a_Node000009"><a xlink:href="example1_8c.html#aba398ef6d2b9f80899b2d65ca9a0fe7d" target="_top" xlink:title="Inicializa a UART0 para 9600 bps (8N1).">
<polygon fill="white" stroke="#666666" points="164.75,-20 96.25,-20 96.25,0 164.75,0 164.75,-20"/>
<text xml:space="preserve" text-anchor="middle" x="130.5" y="-6.5" font-family="Helvetica,sans-Serif" font-size="10.00">USART_Init</text>
</a>
</g>
</g>
<!-- Node1&#45;&gt;Node9 -->
<g id="edge9_Node000001_Node000009" class="edge">
<title>Node1&#45;&gt;Node9</title>
<g id="a_edge9_Node000001_Node000009"><a xlink:title=" ">
<path fill="none" stroke="#63b8ff" d="M22.51,-113.8C28.74,-94.46 44.85,-52.29 73,-29 76.72,-25.92 80.97,-23.33 85.42,-21.16"/>
<polygon fill="#63b8ff" stroke="#63b8ff" points="86.71,-24.41 94.63,-17.38 84.05,-17.94 86.71,-24.41"/>
</a>
</g>
</g>
<!-- Node2&#45;&gt;Node3 -->
<g id="edge2_Node000002_Node000003" class="edge">
<title>Node2&#45;&gt;Node3</title>
<g id="a_edge2_Node000002_Node000003"><a xlink:title=" ">
<path fill="none" stroke="#63b8ff" d="M298.18,-200.33C306.33,-199.02 315.32,-197.58 324.46,-196.1"/>
<polygon fill="#63b8ff" stroke="#63b8ff" points="324.84,-199.59 334.16,-194.54 323.73,-192.68 324.84,-199.59"/>
</a>
</g>
</g>
<!-- Node5 -->
<g id="Node000005" class="node">
<title>Node5</title>
<g id="a_Node000005"><a xlink:href="twi_8c.html#a43dcf18cf7b6f9c5ee25a4a88e2d7efd" target="_top" xlink:title="Calcula o valor do registrador TWBR baseado na frequência de CPU e SCL desejada.">
<polygon fill="white" stroke="#666666" points="300,-134 224,-134 224,-114 300,-114 300,-134"/>
<text xml:space="preserve" text-anchor="middle" x="262" y="-120.5" font-family="Helvetica,sans-Serif" font-size="10.00">twi_calc_twbr</text>
</a>
</g>
</g>
<!-- Node4&#45;&gt;Node5 -->
<g id="edge4_Node000004_Node000005" class="edge">
<title>Node4&#45;&gt;Node5</title>
<g id="a_edge4_Node000004_Node000005"><a xlink:title=" ">
<path fill="none" stroke="#63b8ff" d="M154.35,-124C170.38,-124 192.4,-124 212.28,-124"/>
<polygon fill="#63b8ff" stroke="#63b8ff" points="212.15,-127.5 222.15,-124 212.15,-120.5 212.15,-127.5"/>
</a>
</g>
</g>
<!-- Node6&#45;&gt;Node2 -->
<g id="edge6_Node000006_Node000002" class="edge">
<title>Node6&#45;&gt;Node2</title>
<g id="a_edge6_Node000006_Node000002"><a xlink:title=" ">
<path fill="none" stroke="#63b8ff" d="M181.57,-206C192.44,-206 203.89,-206 214.62,-206"/>
<polygon fill="#63b8ff" stroke="#63b8ff" points="214.39,-209.5 224.39,-206 214.39,-202.5 214.39,-209.5"/>
</a>
</g>
</g>
</g>
</svg>
</svg>

<style type='text/css'>
<![CDATA[
[data-mouse-over-selected='false'] { opacity: 0.7; }
[data-mouse-over-selected='true']  { opacity: 1.0; }
]]>
</style>
<script type="application/ecmascript"><![CDATA[
document.addEventListener('DOMContentLoaded', (event) => {
  highlightEdges();
  highlightAdjacentNodes();
});
]]></script>
</svg>
