<?xml version="1.0" encoding="UTF-8" standalone="no"?>
<!DOCTYPE svg PUBLIC "-//W3C//DTD SVG 1.1//EN"
 "http://www.w3.org/Graphics/SVG/1.1/DTD/svg11.dtd">
<!-- Generated by graphviz version 14.1.4 (20260321.0153)
 -->
<!-- Title: main Pages: 1 -->
<svg width="453pt" height="213pt"
 viewBox="0.00 0.00 453.00 213.00" xmlns="http://www.w3.org/2000/svg" xmlns:xlink="http://www.w3.org/1999/xlink">

<svg id="main" version="1.1" xmlns="http://www.w3.org/2000/svg" xmlns:xlink="http://www.w3.org/1999/xlink" xml:space="preserve">

<style type="text/css"><![CDATA[
.node, .edge {opacity: 0.7;}
.node.selected, .edge.selected {opacity: 1;}
.edge:hover path { stroke: red; }
.edge:hover polygon { stroke: red; fill: red; }
]]></style>
<script type="application/ecmascript" xlink:href="svg.min.js"/>
<svg id="graph" class="graph">
<g id="graph0" class="graph" transform="scale(1 1) rotate(0) translate(4 209.37)">
<title>main</title>
<!-- Node1 -->
<g id="Node000001" class="node">
<title>Node1</title>
<g id="a_Node000001"><a xlink:title="Ponto de entrada do Slave.">
<polygon fill="#999999" stroke="#666666" points="37,-115 0,-115 0,-95 37,-95 37,-115"/>
<text xml:space="preserve" text-anchor="middle" x="18.5" y="-101.5" font-family="Helvetica,sans-Serif" font-size="10.00">main</text>
</a>
</g>
</g>
<!-- Node2 -->
<g id="Node000002" class="node">
<title>Node2</title>
<g id="a_Node000002"><a xlink:href="example2_8c.html#a8c90411c4eede2e0397727033c45176f" target="_top" xlink:title="Callback de recebimento (Master &#45;&gt; Slave).">
<polygon fill="white" stroke="#666666" points="273.38,-137 210.12,-137 210.12,-117 273.38,-117 273.38,-137"/>
<text xml:space="preserve" text-anchor="middle" x="241.75" y="-123.5" font-family="Helvetica,sans-Serif" font-size="10.00">on_receive</text>
</a>
</g>
</g>
<!-- Node1&#45;&gt;Node2 -->
<g id="edge1_Node000001_Node000002" class="edge">
<title>Node1&#45;&gt;Node2</title>
<g id="a_edge1_Node000001_Node000002"><a xlink:title=" ">
<path fill="none" stroke="#63b8ff" d="M37.23,-106.76C71.9,-110.21 149.54,-117.93 198.27,-122.78"/>
<polygon fill="#63b8ff" stroke="#63b8ff" points="197.89,-126.26 208.19,-123.76 198.59,-119.29 197.89,-126.26"/>
</a>
</g>
</g>
<!-- Node3 -->
<g id="Node000003" class="node">
<title>Node3</title>
<g id="a_Node000003"><a xlink:href="example2_8c.html#a30c5ce81613c9030d0f20e4c556f384e" target="_top" xlink:title=" ">
<polygon fill="white" stroke="#666666" points="445,-137 315.75,-137 315.75,-117 445,-117 445,-137"/>
<text xml:space="preserve" text-anchor="middle" x="380.38" y="-123.5" font-family="Helvetica,sans-Serif" font-size="10.00">USART_Transmite_String</text>
</a>
</g>
</g>
<!-- Node1&#45;&gt;Node3 -->
<g id="edge11_Node000001_Node000003" class="edge">
<title>Node1&#45;&gt;Node3</title>
<g id="a_edge11_Node000001_Node000003"><a xlink:title=" ">
<path fill="none" stroke="#63b8ff" d="M37.23,-104.13C79.4,-102.29 188.93,-98.89 279.75,-108 293.85,-109.41 308.93,-111.82 322.98,-114.45"/>
<polygon fill="#63b8ff" stroke="#63b8ff" points="322.02,-117.83 332.51,-116.3 323.36,-110.96 322.02,-117.83"/>
</a>
</g>
</g>
<!-- Node4 -->
<g id="Node000004" class="node">
<title>Node4</title>
<g id="a_Node000004"><a xlink:href="example2_8c.html#a17a0a7ba53e28f208477b94daf43a35e" target="_top" xlink:title="Callback de transmissão (Slave &#45;&gt; Master).">
<polygon fill="white" stroke="#666666" points="275.25,-178 208.25,-178 208.25,-158 275.25,-158 275.25,-178"/>
<text xml:space="preserve" text-anchor="middle" x="241.75" y="-164.5" font-family="Helvetica,sans-Serif" font-size="10.00">on_transmit</text>
</a>
</g>
</g>
<!-- Node1&#45;&gt;Node4 -->
<g id="edge3_Node000001_Node000004" class="edge">
<title>Node1&#45;&gt;Node4</title>
<g id="a_edge3_Node000001_Node000004"><a xlink:title=" ">
<path fill="none" stroke="#63b8ff" d="M22.16,-115.29C27.79,-134.66 42.92,-176.09 73,-193 116.38,-217.39 175.6,-198.68 210.83,-183.15"/>
<polygon fill="#63b8ff" stroke="#63b8ff" points="211.97,-186.48 219.58,-179.11 209.03,-180.12 211.97,-186.48"/>
</a>
</g>
</g>
<!-- Node5 -->
<g id="Node000005" class="node">
<title>Node5</title>
<g id="a_Node000005"><a xlink:href="twi_8c.html#a839dfadc1a40b5a4016c5794bba521e3" target="_top" xlink:title="Inicializa o módulo TWI.">
<polygon fill="white" stroke="#666666" points="143.75,-58 97,-58 97,-38 143.75,-38 143.75,-58"/>
<text xml:space="preserve" text-anchor="middle" x="120.38" y="-44.5" font-family="Helvetica,sans-Serif" font-size="10.00">twi_init</text>
</a>
</g>
</g>
<!-- Node1&#45;&gt;Node5 -->
<g id="edge5_Node000001_Node000005" class="edge">
<title>Node1&#45;&gt;Node5</title>
<g id="a_edge5_Node000001_Node000005"><a xlink:title=" ">
<path fill="none" stroke="#63b8ff" d="M35.7,-94.57C46.21,-87.91 60.27,-79.2 73,-72 77.87,-69.24 83.09,-66.42 88.21,-63.72"/>
<polygon fill="#63b8ff" stroke="#63b8ff" points="89.81,-66.83 97.08,-59.12 86.59,-60.62 89.81,-66.83"/>
</a>
</g>
</g>
<!-- Node7 -->
<g id="Node000007" class="node">
<title>Node7</title>
<g id="a_Node000007"><a xlink:href="twi_8c.html#a34c56c0dd6b7b72b6d7eb3b2b1ec4b00" target="_top" xlink:title="Registra os callbacks de eventos para o modo Slave.">
<polygon fill="white" stroke="#666666" points="167.75,-184 73,-184 73,-152 167.75,-152 167.75,-184"/>
<text xml:space="preserve" text-anchor="start" x="81" y="-170.5" font-family="Helvetica,sans-Serif" font-size="10.00">twi_slave_register</text>
<text xml:space="preserve" text-anchor="middle" x="120.38" y="-158.5" font-family="Helvetica,sans-Serif" font-size="10.00">_callbacks</text>
</a>
</g>
</g>
<!-- Node1&#45;&gt;Node7 -->
<g id="edge7_Node000001_Node000007" class="edge">
<title>Node1&#45;&gt;Node7</title>
<g id="a_edge7_Node000001_Node000007"><a xlink:title=" ">
<path fill="none" stroke="#63b8ff" d="M35.99,-115.4C49.05,-123.64 67.76,-135.44 84.15,-145.78"/>
<polygon fill="#63b8ff" stroke="#63b8ff" points="81.87,-148.48 92.19,-150.85 85.6,-142.56 81.87,-148.48"/>
</a>
</g>
</g>
<!-- Node8 -->
<g id="Node000008" class="node">
<title>Node8</title>
<g id="a_Node000008"><a xlink:href="example2_8c.html#aba398ef6d2b9f80899b2d65ca9a0fe7d" target="_top" xlink:title="Inicializa a UART para monitoramento.">
<polygon fill="white" stroke="#666666" points="154.62,-20 86.12,-20 86.12,0 154.62,0 154.62,-20"/>
<text xml:space="preserve" text-anchor="middle" x="120.38" y="-6.5" font-family="Helvetica,sans-Serif" font-size="10.00">USART_Init</text>
</a>
</g>
</g>
<!-- Node1&#45;&gt;Node8 -->
<g id="edge10_Node000001_Node000008" class="edge">
<title>Node1&#45;&gt;Node8</title>
<g id="a_edge10_Node000001_Node000008"><a xlink:title=" ">
<path fill="none" stroke="#63b8ff" d="M24.31,-94.74C32.3,-78.67 49.79,-47.51 73,-29 74.32,-27.95 75.7,-26.95 77.13,-26"/>
<polygon fill="#63b8ff" stroke="#63b8ff" points="78.78,-29.09 85.79,-21.14 75.36,-22.98 78.78,-29.09"/>
</a>
</g>
</g>
<!-- Node2&#45;&gt;Node3 -->
<g id="edge2_Node000002_Node000003" class="edge">
<title>Node2&#45;&gt;Node3</title>
<g id="a_edge2_Node000002_Node000003"><a xlink:title=" ">
<path fill="none" stroke="#63b8ff" d="M273.75,-127C282.93,-127 293.4,-127 304.09,-127"/>
<polygon fill="#63b8ff" stroke="#63b8ff" points="303.77,-130.5 313.77,-127 303.77,-123.5 303.77,-130.5"/>
</a>
</g>
</g>
<!-- Node4&#45;&gt;Node3 -->
<g id="edge4_Node000004_Node000003" class="edge">
<title>Node4&#45;&gt;Node3</title>
<g id="a_edge4_Node000004_Node000003"><a xlink:title=" ">
<path fill="none" stroke="#63b8ff" d="M275.48,-158.18C292.9,-152.95 314.6,-146.44 333.66,-140.72"/>
<polygon fill="#63b8ff" stroke="#63b8ff" points="334.51,-144.12 343.08,-137.89 332.49,-137.41 334.51,-144.12"/>
</a>
</g>
</g>
<!-- Node6 -->
<g id="Node000006" class="node">
<title>Node6</title>
<g id="a_Node000006"><a xlink:href="twi_8c.html#a43dcf18cf7b6f9c5ee25a4a88e2d7efd" target="_top" xlink:title="Calcula o valor do registrador TWBR baseado na frequência de CPU e SCL desejada.">
<polygon fill="white" stroke="#666666" points="279.75,-58 203.75,-58 203.75,-38 279.75,-38 279.75,-58"/>
<text xml:space="preserve" text-anchor="middle" x="241.75" y="-44.5" font-family="Helvetica,sans-Serif" font-size="10.00">twi_calc_twbr</text>
</a>
</g>
</g>
<!-- Node5&#45;&gt;Node6 -->
<g id="edge6_Node000005_Node000006" class="edge">
<title>Node5&#45;&gt;Node6</title>
<g id="a_edge6_Node000005_Node000006"><a xlink:title=" ">
<path fill="none" stroke="#63b8ff" d="M144.11,-48C157.74,-48 175.61,-48 192.27,-48"/>
<polygon fill="#63b8ff" stroke="#63b8ff" points="192.03,-51.5 202.03,-48 192.03,-44.5 192.03,-51.5"/>
</a>
</g>
</g>
<!-- Node7&#45;&gt;Node2 -->
<g id="edge8_Node000007_Node000002" class="edge">
<title>Node7&#45;&gt;Node2</title>
<g id="a_edge8_Node000007_Node000002"><a xlink:title=" ">
<path fill="none" stroke="#63b8ff" d="M168.21,-151.91C178.57,-148.35 189.48,-144.61 199.59,-141.14"/>
<polygon fill="#63b8ff" stroke="#63b8ff" points="200.44,-144.54 208.77,-137.99 198.17,-137.92 200.44,-144.54"/>
</a>
</g>
</g>
<!-- Node7&#45;&gt;Node4 -->
<g id="edge9_Node000007_Node000004" class="edge">
<title>Node7&#45;&gt;Node4</title>
<g id="a_edge9_Node000007_Node000004"><a xlink:title=" ">
<path fill="none" stroke="#63b8ff" d="M168.21,-168C177.58,-168 187.39,-168 196.67,-168"/>
<polygon fill="#63b8ff" stroke="#63b8ff" points="196.54,-171.5 206.54,-168 196.54,-164.5 196.54,-171.5"/>
</a>
</g>
</g>
</g>
</svg>
</svg>

<style type='text/css'>
<![CDATA[
[data-mouse-over-selected='false'] { opacity: 0.7; }
[data-mouse-over-selected='true']  { opacity: 1.0; }
]]>
</style>
<script type="application/ecmascript"><![CDATA[
document.addEventListener('DOMContentLoaded', (event) => {
  highlightEdges();
  highlightAdjacentNodes();
});
]]></script>
</svg>
