<?xml version="1.0" encoding="UTF-8" standalone="no"?>
<!DOCTYPE svg PUBLIC "-//W3C//DTD SVG 1.1//EN"
 "http://www.w3.org/Graphics/SVG/1.1/DTD/svg11.dtd">
<!-- Generated by graphviz version 14.1.4 (20260321.0153)
 -->
<!-- Title: on_complete Pages: 1 -->
<svg width="290pt" height="93pt"
 viewBox="0.00 0.00 290.00 93.00" xmlns="http://www.w3.org/2000/svg" xmlns:xlink="http://www.w3.org/1999/xlink">
<g id="graph0" class="graph" transform="scale(1 1) rotate(0) translate(4 88.85)">
<title>on_complete</title>
<!-- Node1 -->
<g id="Node000001" class="node">
<title>Node1</title>
<g id="a_Node000001"><a xlink:title="Callback de conclusão para transações Master.">
<polygon fill="#999999" stroke="#666666" points="282,-70 210.5,-70 210.5,-50 282,-50 282,-70"/>
<text xml:space="preserve" text-anchor="middle" x="246.25" y="-56.5" font-family="Helvetica,sans-Serif" font-size="10.00">on_complete</text>
</a>
</g>
</g>
<!-- Node2 -->
<g id="Node000002" class="node">
<title>Node2</title>
<g id="a_Node000002"><a xlink:href="example1_8c.html#a840291bc02cba5474a4cb46a9b9566fe" target="_top" xlink:title="Ponto de entrada principal da aplicação.">
<polygon fill="white" stroke="#666666" points="37,-67 0,-67 0,-47 37,-47 37,-67"/>
<text xml:space="preserve" text-anchor="middle" x="18.5" y="-53.5" font-family="Helvetica,sans-Serif" font-size="10.00">main</text>
</a>
</g>
</g>
<!-- Node1&#45;&gt;Node2 -->
<g id="edge1_Node000001_Node000002" class="edge">
<title>Node1&#45;&gt;Node2</title>
<g id="a_edge1_Node000001_Node000002"><a xlink:title=" ">
<path fill="none" stroke="#63b8ff" d="M202.67,-73.36C193.47,-75.71 183.73,-77.78 174.5,-79 129.78,-84.9 117.26,-87.74 73,-79 60.59,-76.55 47.43,-71.18 37.27,-66.36"/>
<polygon fill="#63b8ff" stroke="#63b8ff" points="203.36,-76.8 212.1,-70.81 201.53,-70.05 203.36,-76.8"/>
</a>
</g>
</g>
<!-- Node3 -->
<g id="Node000003" class="node">
<title>Node3</title>
<g id="a_Node000003"><a xlink:href="twi_8h.html#ace0b103ca42c617be55ddc1507dcc4ca" target="_top" xlink:title="Verifica se o barramento TWI está disponível para uma nova transação.">
<polygon fill="white" stroke="#666666" points="165.88,-70 81.62,-70 81.62,-50 165.88,-50 165.88,-70"/>
<text xml:space="preserve" text-anchor="middle" x="123.75" y="-56.5" font-family="Helvetica,sans-Serif" font-size="10.00">twi_bus_is_free</text>
</a>
</g>
</g>
<!-- Node1&#45;&gt;Node3 -->
<g id="edge2_Node000001_Node000003" class="edge">
<title>Node1&#45;&gt;Node3</title>
<g id="a_edge2_Node000001_Node000003"><a xlink:title=" ">
<path fill="none" stroke="#63b8ff" d="M198.73,-60C187.99,-60 176.64,-60 166.14,-60"/>
<polygon fill="#63b8ff" stroke="#63b8ff" points="198.56,-63.5 208.56,-60 198.56,-56.5 198.56,-63.5"/>
</a>
</g>
</g>
<!-- Node4 -->
<g id="Node000004" class="node">
<title>Node4</title>
<g id="a_Node000004"><a xlink:href="twi_8c.html#a21f0cd2bbdf528b20ad08d8e1284693e" target="_top" xlink:title="Registra os callbacks de eventos para o modo Master.">
<polygon fill="white" stroke="#666666" points="174.5,-32 73,-32 73,0 174.5,0 174.5,-32"/>
<text xml:space="preserve" text-anchor="start" x="81" y="-18.5" font-family="Helvetica,sans-Serif" font-size="10.00">twi_master_register</text>
<text xml:space="preserve" text-anchor="middle" x="123.75" y="-6.5" font-family="Helvetica,sans-Serif" font-size="10.00">_callbacks</text>
</a>
</g>
</g>
<!-- Node1&#45;&gt;Node4 -->
<g id="edge3_Node000001_Node000004" class="edge">
<title>Node1&#45;&gt;Node4</title>
<g id="a_edge3_Node000001_Node000004"><a xlink:title=" ">
<path fill="none" stroke="#63b8ff" d="M205.98,-45.66C194.35,-41.42 181.54,-36.74 169.59,-32.37"/>
<polygon fill="#63b8ff" stroke="#63b8ff" points="204.68,-48.91 215.27,-49.05 207.08,-42.34 204.68,-48.91"/>
</a>
</g>
</g>
<!-- Node4&#45;&gt;Node2 -->
<g id="edge4_Node000004_Node000002" class="edge">
<title>Node4&#45;&gt;Node2</title>
<g id="a_edge4_Node000004_Node000002"><a xlink:title=" ">
<path fill="none" stroke="#63b8ff" d="M70.85,-36.61C58.84,-41.38 46.84,-46.14 37.47,-49.86"/>
<polygon fill="#63b8ff" stroke="#63b8ff" points="71.94,-39.94 79.94,-33 69.36,-33.44 71.94,-39.94"/>
</a>
</g>
</g>
</g>
</svg>
