<?xml version="1.0" encoding="UTF-8" standalone="no"?>
<!DOCTYPE svg PUBLIC "-//W3C//DTD SVG 1.1//EN"
 "http://www.w3.org/Graphics/SVG/1.1/DTD/svg11.dtd">
<!-- Generated by graphviz version 14.1.4 (20260321.0153)
 -->
<!-- Title: main Pages: 1 -->
<svg width="497pt" height="221pt"
 viewBox="0.00 0.00 497.00 221.00" xmlns="http://www.w3.org/2000/svg" xmlns:xlink="http://www.w3.org/1999/xlink">
<g id="graph0" class="graph" transform="scale(1 1) rotate(0) translate(4 216.88)">
<title>main</title>
<!-- Node1 -->
<g id="Node000001" class="node">
<title>Node1</title>
<g id="a_Node000001"><a xlink:title="Função principal para o teste do MPU6050.">
<polygon fill="#999999" stroke="#666666" points="37,-115 0,-115 0,-95 37,-95 37,-115"/>
<text xml:space="preserve" text-anchor="middle" x="18.5" y="-101.5" font-family="Helvetica,sans-Serif" font-size="10.00">main</text>
</a>
</g>
</g>
<!-- Node2 -->
<g id="Node000002" class="node">
<title>Node2</title>
<g id="a_Node000002"><a xlink:href="example1_8c.html#ad9b05939593a1d19d76cdd8ea94edb17" target="_top" xlink:title="Callback de conclusão para transações Master.">
<polygon fill="white" stroke="#666666" points="321.75,-200 250.25,-200 250.25,-180 321.75,-180 321.75,-200"/>
<text xml:space="preserve" text-anchor="middle" x="286" y="-186.5" font-family="Helvetica,sans-Serif" font-size="10.00">on_complete</text>
</a>
</g>
</g>
<!-- Node1&#45;&gt;Node2 -->
<g id="edge1_Node000001_Node000002" class="edge">
<title>Node1&#45;&gt;Node2</title>
<g id="a_edge1_Node000001_Node000002"><a xlink:title=" ">
<path fill="none" stroke="#63b8ff" d="M22.16,-115.29C27.79,-134.66 42.92,-176.09 73,-193 124.32,-221.86 194.27,-213.48 239.53,-203.14"/>
<polygon fill="#63b8ff" stroke="#63b8ff" points="240.12,-206.6 249.01,-200.84 238.47,-199.79 240.12,-206.6"/>
</a>
</g>
</g>
<!-- Node4 -->
<g id="Node000004" class="node">
<title>Node4</title>
<g id="a_Node000004"><a xlink:href="twi_8c.html#a839dfadc1a40b5a4016c5794bba521e3" target="_top" xlink:title="Inicializa o módulo TWI.">
<polygon fill="white" stroke="#666666" points="165.88,-134 119.12,-134 119.12,-114 165.88,-114 165.88,-134"/>
<text xml:space="preserve" text-anchor="middle" x="142.5" y="-120.5" font-family="Helvetica,sans-Serif" font-size="10.00">twi_init</text>
</a>
</g>
</g>
<!-- Node1&#45;&gt;Node4 -->
<g id="edge3_Node000001_Node000004" class="edge">
<title>Node1&#45;&gt;Node4</title>
<g id="a_edge3_Node000001_Node000004"><a xlink:title=" ">
<path fill="none" stroke="#63b8ff" d="M37.24,-107.76C55.59,-110.62 84.69,-115.15 107.49,-118.7"/>
<polygon fill="#63b8ff" stroke="#63b8ff" points="106.83,-122.14 117.25,-120.22 107.91,-115.23 106.83,-122.14"/>
</a>
</g>
</g>
<!-- Node6 -->
<g id="Node000006" class="node">
<title>Node6</title>
<g id="a_Node000006"><a xlink:href="twi_8c.html#a21f0cd2bbdf528b20ad08d8e1284693e" target="_top" xlink:title="Registra os callbacks de eventos para o modo Master.">
<polygon fill="white" stroke="#666666" points="193.25,-184 91.75,-184 91.75,-152 193.25,-152 193.25,-184"/>
<text xml:space="preserve" text-anchor="start" x="99.75" y="-170.5" font-family="Helvetica,sans-Serif" font-size="10.00">twi_master_register</text>
<text xml:space="preserve" text-anchor="middle" x="142.5" y="-158.5" font-family="Helvetica,sans-Serif" font-size="10.00">_callbacks</text>
</a>
</g>
</g>
<!-- Node1&#45;&gt;Node6 -->
<g id="edge5_Node000001_Node000006" class="edge">
<title>Node1&#45;&gt;Node6</title>
<g id="a_edge5_Node000001_Node000006"><a xlink:title=" ">
<path fill="none" stroke="#63b8ff" d="M32.06,-115.4C42.52,-123.68 58.07,-135.16 73,-143 75.64,-144.39 78.38,-145.73 81.16,-147.03"/>
<polygon fill="#63b8ff" stroke="#63b8ff" points="79.48,-150.11 90.05,-150.9 82.28,-143.7 79.48,-150.11"/>
</a>
</g>
</g>
<!-- Node7 -->
<g id="Node000007" class="node">
<title>Node7</title>
<g id="a_Node000007"><a xlink:href="twi_8c.html#a8a73bbaf7928c2df253a0c490c80333e" target="_top" xlink:title="Inicia uma transação combinada (Escrita seguida de Leitura) com Repeated Start.">
<polygon fill="white" stroke="#666666" points="212,-96 73,-96 73,-76 212,-76 212,-96"/>
<text xml:space="preserve" text-anchor="middle" x="142.5" y="-82.5" font-family="Helvetica,sans-Serif" font-size="10.00">twi_master_start_write_read</text>
</a>
</g>
</g>
<!-- Node1&#45;&gt;Node7 -->
<g id="edge7_Node000001_Node000007" class="edge">
<title>Node1&#45;&gt;Node7</title>
<g id="a_edge7_Node000001_Node000007"><a xlink:title=" ">
<path fill="none" stroke="#63b8ff" d="M37.24,-102.24C44.54,-101.1 53.54,-99.7 63.17,-98.2"/>
<polygon fill="#63b8ff" stroke="#63b8ff" points="63.41,-101.7 72.75,-96.71 62.33,-94.79 63.41,-101.7"/>
</a>
</g>
</g>
<!-- Node8 -->
<g id="Node000008" class="node">
<title>Node8</title>
<g id="a_Node000008"><a xlink:href="example3_8c.html#aba398ef6d2b9f80899b2d65ca9a0fe7d" target="_top" xlink:title="Inicializa a UART para depuração.">
<polygon fill="white" stroke="#666666" points="176.75,-58 108.25,-58 108.25,-38 176.75,-38 176.75,-58"/>
<text xml:space="preserve" text-anchor="middle" x="142.5" y="-44.5" font-family="Helvetica,sans-Serif" font-size="10.00">USART_Init</text>
</a>
</g>
</g>
<!-- Node1&#45;&gt;Node8 -->
<g id="edge8_Node000001_Node000008" class="edge">
<title>Node1&#45;&gt;Node8</title>
<g id="a_edge8_Node000001_Node000008"><a xlink:title=" ">
<path fill="none" stroke="#63b8ff" d="M31.48,-94.63C41.85,-86.13 57.57,-74.34 73,-67 80.51,-63.43 88.81,-60.42 96.97,-57.93"/>
<polygon fill="#63b8ff" stroke="#63b8ff" points="97.78,-61.33 106.45,-55.25 95.88,-54.6 97.78,-61.33"/>
</a>
</g>
</g>
<!-- Node9 -->
<g id="Node000009" class="node">
<title>Node9</title>
<g id="a_Node000009"><a xlink:href="example3_8c.html#a30c5ce81613c9030d0f20e4c556f384e" target="_top" xlink:title=" ">
<polygon fill="white" stroke="#666666" points="207.12,-20 77.88,-20 77.88,0 207.12,0 207.12,-20"/>
<text xml:space="preserve" text-anchor="middle" x="142.5" y="-6.5" font-family="Helvetica,sans-Serif" font-size="10.00">USART_Transmite_String</text>
</a>
</g>
</g>
<!-- Node1&#45;&gt;Node9 -->
<g id="edge9_Node000001_Node000009" class="edge">
<title>Node1&#45;&gt;Node9</title>
<g id="a_edge9_Node000001_Node000009"><a xlink:title=" ">
<path fill="none" stroke="#63b8ff" d="M23.93,-94.67C31.53,-78.23 48.6,-46.2 73,-29 74.82,-27.72 76.71,-26.53 78.68,-25.41"/>
<polygon fill="#63b8ff" stroke="#63b8ff" points="80.05,-28.63 87.55,-21.14 77.02,-22.33 80.05,-28.63"/>
</a>
</g>
</g>
<!-- Node3 -->
<g id="Node000003" class="node">
<title>Node3</title>
<g id="a_Node000003"><a xlink:href="example1_8c.html#a30c5ce81613c9030d0f20e4c556f384e" target="_top" xlink:title="Envia uma string via UART0.">
<polygon fill="white" stroke="#666666" points="489.25,-200 360,-200 360,-180 489.25,-180 489.25,-200"/>
<text xml:space="preserve" text-anchor="middle" x="424.62" y="-186.5" font-family="Helvetica,sans-Serif" font-size="10.00">USART_Transmite_String</text>
</a>
</g>
</g>
<!-- Node2&#45;&gt;Node3 -->
<g id="edge2_Node000002_Node000003" class="edge">
<title>Node2&#45;&gt;Node3</title>
<g id="a_edge2_Node000002_Node000003"><a xlink:title=" ">
<path fill="none" stroke="#63b8ff" d="M322.18,-190C330.25,-190 339.12,-190 348.16,-190"/>
<polygon fill="#63b8ff" stroke="#63b8ff" points="348.14,-193.5 358.14,-190 348.14,-186.5 348.14,-193.5"/>
</a>
</g>
</g>
<!-- Node5 -->
<g id="Node000005" class="node">
<title>Node5</title>
<g id="a_Node000005"><a xlink:href="twi_8c.html#a43dcf18cf7b6f9c5ee25a4a88e2d7efd" target="_top" xlink:title="Calcula o valor do registrador TWBR baseado na frequência de CPU e SCL desejada.">
<polygon fill="white" stroke="#666666" points="324,-134 248,-134 248,-114 324,-114 324,-134"/>
<text xml:space="preserve" text-anchor="middle" x="286" y="-120.5" font-family="Helvetica,sans-Serif" font-size="10.00">twi_calc_twbr</text>
</a>
</g>
</g>
<!-- Node4&#45;&gt;Node5 -->
<g id="edge4_Node000004_Node000005" class="edge">
<title>Node4&#45;&gt;Node5</title>
<g id="a_edge4_Node000004_Node000005"><a xlink:title=" ">
<path fill="none" stroke="#63b8ff" d="M166.23,-124C185.1,-124 212.59,-124 236.37,-124"/>
<polygon fill="#63b8ff" stroke="#63b8ff" points="236.18,-127.5 246.18,-124 236.18,-120.5 236.18,-127.5"/>
</a>
</g>
</g>
<!-- Node6&#45;&gt;Node2 -->
<g id="edge6_Node000006_Node000002" class="edge">
<title>Node6&#45;&gt;Node2</title>
<g id="a_edge6_Node000006_Node000002"><a xlink:title=" ">
<path fill="none" stroke="#63b8ff" d="M193.39,-175.76C208.08,-178.04 224.09,-180.53 238.55,-182.78"/>
<polygon fill="#63b8ff" stroke="#63b8ff" points="237.86,-186.21 248.28,-184.29 238.93,-179.3 237.86,-186.21"/>
</a>
</g>
</g>
</g>
</svg>
