<?xml version="1.0" encoding="UTF-8" standalone="no"?>
<!DOCTYPE svg PUBLIC "-//W3C//DTD SVG 1.1//EN"
 "http://www.w3.org/Graphics/SVG/1.1/DTD/svg11.dtd">
<!-- Generated by graphviz version 14.1.4 (20260321.0153)
 -->
<!-- Title: on_complete Pages: 1 -->
<svg width="353pt" height="47pt"
 viewBox="0.00 0.00 353.00 47.00" xmlns="http://www.w3.org/2000/svg" xmlns:xlink="http://www.w3.org/1999/xlink">
<g id="graph0" class="graph" transform="scale(1 1) rotate(0) translate(4 43)">
<title>on_complete</title>
<!-- Node1 -->
<g id="Node000001" class="node">
<title>Node1</title>
<g id="a_Node000001"><a xlink:title="Callback chamado ao fim da transação combinada.">
<polygon fill="#999999" stroke="#666666" points="71.5,-20 0,-20 0,0 71.5,0 71.5,-20"/>
<text xml:space="preserve" text-anchor="middle" x="35.75" y="-6.5" font-family="Helvetica,sans-Serif" font-size="10.00">on_complete</text>
</a>
</g>
</g>
<!-- Node2 -->
<g id="Node000002" class="node">
<title>Node2</title>
<g id="a_Node000002"><a xlink:href="example3_8c.html#ac0f988e6b39a10eb1b4f67dd657373bb" target="_top" xlink:title="Converte um byte em Hexadecimal e envia via UART.">
<polygon fill="white" stroke="#666666" points="179.75,-39 107.5,-39 107.5,-19 179.75,-19 179.75,-39"/>
<text xml:space="preserve" text-anchor="middle" x="143.62" y="-25.5" font-family="Helvetica,sans-Serif" font-size="10.00">uart_puthex8</text>
</a>
</g>
</g>
<!-- Node1&#45;&gt;Node2 -->
<g id="edge1_Node000001_Node000002" class="edge">
<title>Node1&#45;&gt;Node2</title>
<g id="a_edge1_Node000001_Node000002"><a xlink:title=" ">
<path fill="none" stroke="#63b8ff" d="M71.71,-16.27C79.49,-17.67 87.86,-19.17 96.02,-20.64"/>
<polygon fill="#63b8ff" stroke="#63b8ff" points="95.39,-24.08 105.85,-22.4 96.62,-17.19 95.39,-24.08"/>
</a>
</g>
</g>
<!-- Node3 -->
<g id="Node000003" class="node">
<title>Node3</title>
<g id="a_Node000003"><a xlink:href="example3_8c.html#a30c5ce81613c9030d0f20e4c556f384e" target="_top" xlink:title=" ">
<polygon fill="white" stroke="#666666" points="345,-20 215.75,-20 215.75,0 345,0 345,-20"/>
<text xml:space="preserve" text-anchor="middle" x="280.38" y="-6.5" font-family="Helvetica,sans-Serif" font-size="10.00">USART_Transmite_String</text>
</a>
</g>
</g>
<!-- Node1&#45;&gt;Node3 -->
<g id="edge3_Node000001_Node000003" class="edge">
<title>Node1&#45;&gt;Node3</title>
<g id="a_edge3_Node000001_Node000003"><a xlink:title=" ">
<path fill="none" stroke="#63b8ff" d="M71.77,-10C106.3,-10 160.16,-10 204.37,-10"/>
<polygon fill="#63b8ff" stroke="#63b8ff" points="204.16,-13.5 214.16,-10 204.16,-6.5 204.16,-13.5"/>
</a>
</g>
</g>
<!-- Node2&#45;&gt;Node3 -->
<g id="edge2_Node000002_Node000003" class="edge">
<title>Node2&#45;&gt;Node3</title>
<g id="a_edge2_Node000002_Node000003"><a xlink:title=" ">
<path fill="none" stroke="#63b8ff" d="M180.03,-24.01C187.48,-22.96 195.61,-21.81 203.91,-20.64"/>
<polygon fill="#63b8ff" stroke="#63b8ff" points="204.37,-24.11 213.78,-19.25 203.39,-17.18 204.37,-24.11"/>
</a>
</g>
</g>
</g>
</svg>
