<?xml version="1.0" encoding="UTF-8" standalone="no"?>
<!DOCTYPE svg PUBLIC "-//W3C//DTD SVG 1.1//EN"
 "http://www.w3.org/Graphics/SVG/1.1/DTD/svg11.dtd">
<!-- Generated by graphviz version 14.1.4 (20260321.0153)
 -->
<!-- Title: USART_Transmite_String Pages: 1 -->
<svg width="353pt" height="104pt"
 viewBox="0.00 0.00 353.00 104.00" xmlns="http://www.w3.org/2000/svg" xmlns:xlink="http://www.w3.org/1999/xlink">
<g id="graph0" class="graph" transform="scale(1 1) rotate(0) translate(4 100)">
<title>USART_Transmite_String</title>
<!-- Node1 -->
<g id="Node000001" class="node">
<title>Node1</title>
<g id="a_Node000001"><a xlink:title=" ">
<polygon fill="#999999" stroke="#666666" points="345,-58 215.75,-58 215.75,-38 345,-38 345,-58"/>
<text xml:space="preserve" text-anchor="middle" x="280.38" y="-44.5" font-family="Helvetica,sans-Serif" font-size="10.00">USART_Transmite_String</text>
</a>
</g>
</g>
<!-- Node2 -->
<g id="Node000002" class="node">
<title>Node2</title>
<g id="a_Node000002"><a xlink:href="example3_8c.html#a840291bc02cba5474a4cb46a9b9566fe" target="_top" xlink:title="Função principal para o teste do MPU6050.">
<polygon fill="white" stroke="#666666" points="162.12,-96 125.12,-96 125.12,-76 162.12,-76 162.12,-96"/>
<text xml:space="preserve" text-anchor="middle" x="143.62" y="-82.5" font-family="Helvetica,sans-Serif" font-size="10.00">main</text>
</a>
</g>
</g>
<!-- Node1&#45;&gt;Node2 -->
<g id="edge1_Node000001_Node000002" class="edge">
<title>Node1&#45;&gt;Node2</title>
<g id="a_edge1_Node000001_Node000002"><a xlink:title=" ">
<path fill="none" stroke="#63b8ff" d="M231.15,-61.6C207.24,-68.34 179.82,-76.07 162.37,-81"/>
<polygon fill="#63b8ff" stroke="#63b8ff" points="232.07,-64.98 240.74,-58.9 230.17,-58.24 232.07,-64.98"/>
</a>
</g>
</g>
<!-- Node3 -->
<g id="Node000003" class="node">
<title>Node3</title>
<g id="a_Node000003"><a xlink:href="example3_8c.html#ad9b05939593a1d19d76cdd8ea94edb17" target="_top" xlink:title="Callback chamado ao fim da transação combinada.">
<polygon fill="white" stroke="#666666" points="71.5,-39 0,-39 0,-19 71.5,-19 71.5,-39"/>
<text xml:space="preserve" text-anchor="middle" x="35.75" y="-25.5" font-family="Helvetica,sans-Serif" font-size="10.00">on_complete</text>
</a>
</g>
</g>
<!-- Node1&#45;&gt;Node3 -->
<g id="edge2_Node000001_Node000003" class="edge">
<title>Node1&#45;&gt;Node3</title>
<g id="a_edge2_Node000001_Node000003"><a xlink:title=" ">
<path fill="none" stroke="#63b8ff" d="M204.03,-42.1C159.92,-38.65 106.3,-34.45 71.86,-31.75"/>
<polygon fill="#63b8ff" stroke="#63b8ff" points="203.56,-45.57 213.8,-42.86 204.11,-38.59 203.56,-45.57"/>
</a>
</g>
</g>
<!-- Node4 -->
<g id="Node000004" class="node">
<title>Node4</title>
<g id="a_Node000004"><a xlink:href="example3_8c.html#ac0f988e6b39a10eb1b4f67dd657373bb" target="_top" xlink:title="Converte um byte em Hexadecimal e envia via UART.">
<polygon fill="white" stroke="#666666" points="179.75,-20 107.5,-20 107.5,0 179.75,0 179.75,-20"/>
<text xml:space="preserve" text-anchor="middle" x="143.62" y="-6.5" font-family="Helvetica,sans-Serif" font-size="10.00">uart_puthex8</text>
</a>
</g>
</g>
<!-- Node1&#45;&gt;Node4 -->
<g id="edge3_Node000001_Node000004" class="edge">
<title>Node1&#45;&gt;Node4</title>
<g id="a_edge3_Node000001_Node000004"><a xlink:title=" ">
<path fill="none" stroke="#63b8ff" d="M231.34,-34.45C214.34,-29.66 195.56,-24.36 179.83,-19.93"/>
<polygon fill="#63b8ff" stroke="#63b8ff" points="230.17,-37.76 240.74,-37.1 232.07,-31.02 230.17,-37.76"/>
</a>
</g>
</g>
<!-- Node4&#45;&gt;Node3 -->
<g id="edge4_Node000004_Node000003" class="edge">
<title>Node4&#45;&gt;Node3</title>
<g id="a_edge4_Node000004_Node000003"><a xlink:title=" ">
<path fill="none" stroke="#63b8ff" d="M95.82,-18.4C87.7,-19.86 79.39,-21.35 71.67,-22.73"/>
<polygon fill="#63b8ff" stroke="#63b8ff" points="96.36,-21.86 105.59,-16.65 95.12,-14.97 96.36,-21.86"/>
</a>
</g>
</g>
</g>
</svg>
