<?xml version="1.0" encoding="UTF-8" standalone="no"?>
<!DOCTYPE svg PUBLIC "-//W3C//DTD SVG 1.1//EN"
 "http://www.w3.org/Graphics/SVG/1.1/DTD/svg11.dtd">
<!-- Generated by graphviz version 14.1.4 (20260321.0153)
 -->
<!-- Title: inc/twi_types.h Pages: 1 -->
<svg width="460pt" height="140pt"
 viewBox="0.00 0.00 460.00 140.00" xmlns="http://www.w3.org/2000/svg" xmlns:xlink="http://www.w3.org/1999/xlink">
<g id="graph0" class="graph" transform="scale(1 1) rotate(0) translate(4 136)">
<title>inc/twi_types.h</title>
<!-- Node1 -->
<g id="Node000001" class="node">
<title>Node1</title>
<g id="a_Node000001"><a xlink:title="Definições de tipos, enumerações e assinaturas de callback do driver TWI.">
<polygon fill="#999999" stroke="#666666" points="401.62,-132 319.62,-132 319.62,-112 401.62,-112 401.62,-132"/>
<text xml:space="preserve" text-anchor="middle" x="360.62" y="-118.5" font-family="Helvetica,sans-Serif" font-size="10.00">inc/twi_types.h</text>
</a>
</g>
</g>
<!-- Node2 -->
<g id="Node000002" class="node">
<title>Node2</title>
<g id="a_Node000002"><a xlink:href="twi_8h.html" target="_top" xlink:title="Interface pública do driver TWI/I2C para AVR.">
<polygon fill="white" stroke="#666666" points="340,-76 287.25,-76 287.25,-56 340,-56 340,-76"/>
<text xml:space="preserve" text-anchor="middle" x="313.62" y="-62.5" font-family="Helvetica,sans-Serif" font-size="10.00">inc/twi.h</text>
</a>
</g>
</g>
<!-- Node1&#45;&gt;Node2 -->
<g id="edge1_Node000001_Node000002" class="edge">
<title>Node1&#45;&gt;Node2</title>
<g id="a_edge1_Node000001_Node000002"><a xlink:title=" ">
<path fill="none" stroke="#63b8ff" d="M344.96,-103C337.18,-94.06 328.09,-83.62 321.72,-76.3"/>
<polygon fill="#63b8ff" stroke="#63b8ff" points="342.24,-105.21 351.44,-110.45 347.52,-100.61 342.24,-105.21"/>
</a>
</g>
</g>
<!-- Node7 -->
<g id="Node000007" class="node">
<title>Node7</title>
<g id="a_Node000007"><a xlink:href="twi__internal_8h.html" target="_top" xlink:title="Definições internas e Máquina de Estados (FSM) do driver TWI.">
<polygon fill="white" stroke="#666666" points="452.38,-76 362.88,-76 362.88,-56 452.38,-56 452.38,-76"/>
<text xml:space="preserve" text-anchor="middle" x="407.62" y="-62.5" font-family="Helvetica,sans-Serif" font-size="10.00">inc/twi_internal.h</text>
</a>
</g>
</g>
<!-- Node1&#45;&gt;Node7 -->
<g id="edge6_Node000001_Node000007" class="edge">
<title>Node1&#45;&gt;Node7</title>
<g id="a_edge6_Node000001_Node000007"><a xlink:title=" ">
<path fill="none" stroke="#63b8ff" d="M376.29,-103C384.07,-94.06 393.16,-83.62 399.53,-76.3"/>
<polygon fill="#63b8ff" stroke="#63b8ff" points="373.73,-100.61 369.81,-110.45 379.01,-105.21 373.73,-100.61"/>
</a>
</g>
</g>
<!-- Node3 -->
<g id="Node000003" class="node">
<title>Node3</title>
<g id="a_Node000003"><a xlink:href="example1_8c.html" target="_top" xlink:title="Exemplo 1: Operação Master simples (Escrita e Leitura assíncrona).">
<polygon fill="white" stroke="#666666" points="111.25,-20 0,-20 0,0 111.25,0 111.25,-20"/>
<text xml:space="preserve" text-anchor="middle" x="55.62" y="-6.5" font-family="Helvetica,sans-Serif" font-size="10.00">examples/example1.c</text>
</a>
</g>
</g>
<!-- Node2&#45;&gt;Node3 -->
<g id="edge2_Node000002_Node000003" class="edge">
<title>Node2&#45;&gt;Node3</title>
<g id="a_edge2_Node000002_Node000003"><a xlink:title=" ">
<path fill="none" stroke="#63b8ff" d="M275.89,-57.1C229.35,-47.36 150.31,-30.82 100.64,-20.42"/>
<polygon fill="#63b8ff" stroke="#63b8ff" points="275,-60.49 285.5,-59.11 276.43,-53.64 275,-60.49"/>
</a>
</g>
</g>
<!-- Node4 -->
<g id="Node000004" class="node">
<title>Node4</title>
<g id="a_Node000004"><a xlink:href="example2_8c.html" target="_top" xlink:title="Exemplo 2: Operação Slave completa (Responde ao Master do Exemplo 1).">
<polygon fill="white" stroke="#666666" points="240.25,-20 129,-20 129,0 240.25,0 240.25,-20"/>
<text xml:space="preserve" text-anchor="middle" x="184.62" y="-6.5" font-family="Helvetica,sans-Serif" font-size="10.00">examples/example2.c</text>
</a>
</g>
</g>
<!-- Node2&#45;&gt;Node4 -->
<g id="edge3_Node000002_Node000004" class="edge">
<title>Node2&#45;&gt;Node4</title>
<g id="a_edge3_Node000002_Node000004"><a xlink:title=" ">
<path fill="none" stroke="#63b8ff" d="M280.83,-51.27C257.82,-41.64 227.64,-29.01 207.27,-20.48"/>
<polygon fill="#63b8ff" stroke="#63b8ff" points="279.18,-54.38 289.76,-55.01 281.89,-47.92 279.18,-54.38"/>
</a>
</g>
</g>
<!-- Node5 -->
<g id="Node000005" class="node">
<title>Node5</title>
<g id="a_Node000005"><a xlink:href="example3_8c.html" target="_top" xlink:title="Exemplo 3: Leitura do registrador WHO_AM_I do sensor MPU6050.">
<polygon fill="white" stroke="#666666" points="369.25,-20 258,-20 258,0 369.25,0 369.25,-20"/>
<text xml:space="preserve" text-anchor="middle" x="313.62" y="-6.5" font-family="Helvetica,sans-Serif" font-size="10.00">examples/example3.c</text>
</a>
</g>
</g>
<!-- Node2&#45;&gt;Node5 -->
<g id="edge4_Node000002_Node000005" class="edge">
<title>Node2&#45;&gt;Node5</title>
<g id="a_edge4_Node000002_Node000005"><a xlink:title=" ">
<path fill="none" stroke="#63b8ff" d="M313.62,-44.13C313.62,-35.9 313.62,-26.85 313.62,-20.3"/>
<polygon fill="#63b8ff" stroke="#63b8ff" points="310.13,-44.08 313.63,-54.08 317.13,-44.08 310.13,-44.08"/>
</a>
</g>
</g>
<!-- Node6 -->
<g id="Node000006" class="node">
<title>Node6</title>
<g id="a_Node000006"><a xlink:href="twi_8c.html" target="_top" xlink:title="Implementação do Driver TWI/I2C para microcontroladores AVR.">
<polygon fill="white" stroke="#666666" points="440.38,-20 386.88,-20 386.88,0 440.38,0 440.38,-20"/>
<text xml:space="preserve" text-anchor="middle" x="413.62" y="-6.5" font-family="Helvetica,sans-Serif" font-size="10.00">src/twi.c</text>
</a>
</g>
</g>
<!-- Node2&#45;&gt;Node6 -->
<g id="edge5_Node000002_Node000006" class="edge">
<title>Node2&#45;&gt;Node6</title>
<g id="a_edge5_Node000002_Node000006"><a xlink:title=" ">
<path fill="none" stroke="#63b8ff" d="M340.76,-50.35C358.36,-40.84 380.78,-28.74 396.07,-20.48"/>
<polygon fill="#63b8ff" stroke="#63b8ff" points="339.51,-47.04 332.38,-54.87 342.84,-53.2 339.51,-47.04"/>
</a>
</g>
</g>
<!-- Node7&#45;&gt;Node6 -->
<g id="edge7_Node000007_Node000006" class="edge">
<title>Node7&#45;&gt;Node6</title>
<g id="a_edge7_Node000007_Node000006"><a xlink:title=" ">
<path fill="none" stroke="#63b8ff" d="M409.91,-44.43C410.84,-36.11 411.85,-26.93 412.59,-20.3"/>
<polygon fill="#63b8ff" stroke="#63b8ff" points="406.46,-43.76 408.84,-54.09 413.42,-44.54 406.46,-43.76"/>
</a>
</g>
</g>
</g>
</svg>
