<?xml version="1.0" encoding="UTF-8" standalone="no"?>
<!DOCTYPE svg PUBLIC "-//W3C//DTD SVG 1.1//EN"
 "http://www.w3.org/Graphics/SVG/1.1/DTD/svg11.dtd">
<!-- Generated by graphviz version 14.1.4 (20260321.0153)
 -->
<!-- Title: inc/twi.h Pages: 1 -->
<svg width="198pt" height="140pt"
 viewBox="0.00 0.00 198.00 140.00" xmlns="http://www.w3.org/2000/svg" xmlns:xlink="http://www.w3.org/1999/xlink">

<svg id="main" version="1.1" xmlns="http://www.w3.org/2000/svg" xmlns:xlink="http://www.w3.org/1999/xlink" xml:space="preserve">

<style type="text/css"><![CDATA[
.node, .edge {opacity: 0.7;}
.node.selected, .edge.selected {opacity: 1;}
.edge:hover path { stroke: red; }
.edge:hover polygon { stroke: red; fill: red; }
]]></style>
<script type="application/ecmascript" xlink:href="svg.min.js"/>
<svg id="graph" class="graph">
<g id="graph0" class="graph" transform="scale(1 1) rotate(0) translate(4 136)">
<title>inc/twi.h</title>
<!-- Node1 -->
<g id="Node000001" class="node">
<title>Node1</title>
<g id="a_Node000001"><a xlink:title="Interface pública do driver TWI/I2C para AVR.">
<polygon fill="#999999" stroke="#666666" points="120.5,-132 67.75,-132 67.75,-112 120.5,-112 120.5,-132"/>
<text xml:space="preserve" text-anchor="middle" x="94.12" y="-118.5" font-family="Helvetica,sans-Serif" font-size="10.00">inc/twi.h</text>
</a>
</g>
</g>
<!-- Node2 -->
<g id="Node000002" class="node">
<title>Node2</title>
<g id="a_Node000002"><a xlink:href="twi__types_8h.html" target="_top" xlink:title="Definições de tipos, enumerações e assinaturas de callback do driver TWI.">
<polygon fill="white" stroke="#666666" points="66.25,-76 0,-76 0,-56 66.25,-56 66.25,-76"/>
<text xml:space="preserve" text-anchor="middle" x="33.12" y="-62.5" font-family="Helvetica,sans-Serif" font-size="10.00">twi_types.h</text>
</a>
</g>
</g>
<!-- Node1&#45;&gt;Node2 -->
<g id="edge1_Node000001_Node000002" class="edge">
<title>Node1&#45;&gt;Node2</title>
<g id="a_edge1_Node000001_Node000002"><a xlink:title=" ">
<path fill="none" stroke="#63b8ff" d="M83.5,-111.59C74.84,-103.93 62.39,-92.91 52.04,-83.75"/>
<polygon fill="#63b8ff" stroke="#63b8ff" points="54.57,-81.31 44.76,-77.3 49.93,-86.55 54.57,-81.31"/>
</a>
</g>
</g>
<!-- Node4 -->
<g id="Node000004" class="node">
<title>Node4</title>
<g id="a_Node000004"><a xlink:title=" ">
<polygon fill="#e0e0e0" stroke="#999999" points="119.75,-20 68.5,-20 68.5,0 119.75,0 119.75,-20"/>
<text xml:space="preserve" text-anchor="middle" x="94.12" y="-6.5" font-family="Helvetica,sans-Serif" font-size="10.00">stddef.h</text>
</a>
</g>
</g>
<!-- Node1&#45;&gt;Node4 -->
<g id="edge5_Node000001_Node000004" class="edge">
<title>Node1&#45;&gt;Node4</title>
<g id="a_edge5_Node000001_Node000004"><a xlink:title=" ">
<path fill="none" stroke="#63b8ff" d="M94.12,-111.62C94.12,-94.01 94.12,-55.59 94.12,-31.65"/>
<polygon fill="#63b8ff" stroke="#63b8ff" points="97.63,-31.87 94.13,-21.87 90.63,-31.87 97.63,-31.87"/>
</a>
</g>
</g>
<!-- Node5 -->
<g id="Node000005" class="node">
<title>Node5</title>
<g id="a_Node000005"><a xlink:href="twi__config_8h.html" target="_top" xlink:title="Configurações estáticas do driver TWI.">
<polygon fill="white" stroke="#666666" points="190.38,-76 121.88,-76 121.88,-56 190.38,-56 190.38,-76"/>
<text xml:space="preserve" text-anchor="middle" x="156.12" y="-62.5" font-family="Helvetica,sans-Serif" font-size="10.00">twi_config.h</text>
</a>
</g>
</g>
<!-- Node1&#45;&gt;Node5 -->
<g id="edge4_Node000001_Node000005" class="edge">
<title>Node1&#45;&gt;Node5</title>
<g id="a_edge4_Node000001_Node000005"><a xlink:title=" ">
<path fill="none" stroke="#63b8ff" d="M104.92,-111.59C113.73,-103.93 126.38,-92.91 136.9,-83.75"/>
<polygon fill="#63b8ff" stroke="#63b8ff" points="139.07,-86.5 144.31,-77.29 134.47,-81.22 139.07,-86.5"/>
</a>
</g>
</g>
<!-- Node3 -->
<g id="Node000003" class="node">
<title>Node3</title>
<g id="a_Node000003"><a xlink:title=" ">
<polygon fill="#e0e0e0" stroke="#999999" points="50.25,-20 2,-20 2,0 50.25,0 50.25,-20"/>
<text xml:space="preserve" text-anchor="middle" x="26.12" y="-6.5" font-family="Helvetica,sans-Serif" font-size="10.00">stdint.h</text>
</a>
</g>
</g>
<!-- Node2&#45;&gt;Node3 -->
<g id="edge2_Node000002_Node000003" class="edge">
<title>Node2&#45;&gt;Node3</title>
<g id="a_edge2_Node000002_Node000003"><a xlink:title=" ">
<path fill="none" stroke="#63b8ff" d="M31.91,-55.59C31.04,-48.93 29.85,-39.75 28.77,-31.44"/>
<polygon fill="#63b8ff" stroke="#63b8ff" points="32.28,-31.27 27.52,-21.8 25.34,-32.17 32.28,-31.27"/>
</a>
</g>
</g>
<!-- Node2&#45;&gt;Node4 -->
<g id="edge3_Node000002_Node000004" class="edge">
<title>Node2&#45;&gt;Node4</title>
<g id="a_edge3_Node000002_Node000004"><a xlink:title=" ">
<path fill="none" stroke="#63b8ff" d="M43.75,-55.59C52.41,-47.93 64.86,-36.91 75.21,-27.75"/>
<polygon fill="#63b8ff" stroke="#63b8ff" points="77.32,-30.55 82.49,-21.3 72.68,-25.31 77.32,-30.55"/>
</a>
</g>
</g>
</g>
</svg>
</svg>

<style type='text/css'>
<![CDATA[
[data-mouse-over-selected='false'] { opacity: 0.7; }
[data-mouse-over-selected='true']  { opacity: 1.0; }
]]>
</style>
<script type="application/ecmascript"><![CDATA[
document.addEventListener('DOMContentLoaded', (event) => {
  highlightEdges();
  highlightAdjacentNodes();
});
]]></script>
</svg>
