<?xml version="1.0" encoding="UTF-8" standalone="no"?>
<!DOCTYPE svg PUBLIC "-//W3C//DTD SVG 1.1//EN"
 "http://www.w3.org/Graphics/SVG/1.1/DTD/svg11.dtd">
<!-- Generated by graphviz version 14.1.4 (20260321.0153)
 -->
<!-- Title: inc/twi_internal.h Pages: 1 -->
<svg width="286pt" height="140pt"
 viewBox="0.00 0.00 286.00 140.00" xmlns="http://www.w3.org/2000/svg" xmlns:xlink="http://www.w3.org/1999/xlink">

<svg id="main" version="1.1" xmlns="http://www.w3.org/2000/svg" xmlns:xlink="http://www.w3.org/1999/xlink" xml:space="preserve">

<style type="text/css"><![CDATA[
.node, .edge {opacity: 0.7;}
.node.selected, .edge.selected {opacity: 1;}
.edge:hover path { stroke: red; }
.edge:hover polygon { stroke: red; fill: red; }
]]></style>
<script type="application/ecmascript" xlink:href="svg.min.js"/>
<svg id="graph" class="graph">
<g id="graph0" class="graph" transform="scale(1 1) rotate(0) translate(4 136)">
<title>inc/twi_internal.h</title>
<!-- Node1 -->
<g id="Node000001" class="node">
<title>Node1</title>
<g id="a_Node000001"><a xlink:title="Definições internas e Máquina de Estados (FSM) do driver TWI.">
<polygon fill="#999999" stroke="#666666" points="166.88,-132 77.38,-132 77.38,-112 166.88,-112 166.88,-132"/>
<text xml:space="preserve" text-anchor="middle" x="122.12" y="-118.5" font-family="Helvetica,sans-Serif" font-size="10.00">inc/twi_internal.h</text>
</a>
</g>
</g>
<!-- Node2 -->
<g id="Node000002" class="node">
<title>Node2</title>
<g id="a_Node000002"><a xlink:href="twi__types_8h.html" target="_top" xlink:title="Definições de tipos, enumerações e assinaturas de callback do driver TWI.">
<polygon fill="white" stroke="#666666" points="118.25,-76 52,-76 52,-56 118.25,-56 118.25,-76"/>
<text xml:space="preserve" text-anchor="middle" x="85.12" y="-62.5" font-family="Helvetica,sans-Serif" font-size="10.00">twi_types.h</text>
</a>
</g>
</g>
<!-- Node1&#45;&gt;Node2 -->
<g id="edge1_Node000001_Node000002" class="edge">
<title>Node1&#45;&gt;Node2</title>
<g id="a_edge1_Node000001_Node000002"><a xlink:title=" ">
<path fill="none" stroke="#63b8ff" d="M115.68,-111.59C110.8,-104.47 103.93,-94.45 97.95,-85.72"/>
<polygon fill="#63b8ff" stroke="#63b8ff" points="100.89,-83.82 92.35,-77.55 95.12,-87.77 100.89,-83.82"/>
</a>
</g>
</g>
<!-- Node3 -->
<g id="Node000003" class="node">
<title>Node3</title>
<g id="a_Node000003"><a xlink:title=" ">
<polygon fill="#e0e0e0" stroke="#999999" points="48.25,-20 0,-20 0,0 48.25,0 48.25,-20"/>
<text xml:space="preserve" text-anchor="middle" x="24.12" y="-6.5" font-family="Helvetica,sans-Serif" font-size="10.00">stdint.h</text>
</a>
</g>
</g>
<!-- Node1&#45;&gt;Node3 -->
<g id="edge4_Node000001_Node000003" class="edge">
<title>Node1&#45;&gt;Node3</title>
<g id="a_edge4_Node000001_Node000003"><a xlink:title=" ">
<path fill="none" stroke="#63b8ff" d="M94.72,-111.55C77.58,-104.32 56.34,-92.72 43.12,-76 33.08,-63.29 28.34,-45.42 26.11,-31.64"/>
<polygon fill="#63b8ff" stroke="#63b8ff" points="29.61,-31.38 24.88,-21.9 22.66,-32.26 29.61,-31.38"/>
</a>
</g>
</g>
<!-- Node5 -->
<g id="Node000005" class="node">
<title>Node5</title>
<g id="a_Node000005"><a xlink:title=" ">
<polygon fill="#e0e0e0" stroke="#999999" points="184.25,-76 136,-76 136,-56 184.25,-56 184.25,-76"/>
<text xml:space="preserve" text-anchor="middle" x="160.12" y="-62.5" font-family="Helvetica,sans-Serif" font-size="10.00">avr/io.h</text>
</a>
</g>
</g>
<!-- Node1&#45;&gt;Node5 -->
<g id="edge5_Node000001_Node000005" class="edge">
<title>Node1&#45;&gt;Node5</title>
<g id="a_edge5_Node000001_Node000005"><a xlink:title=" ">
<path fill="none" stroke="#63b8ff" d="M128.74,-111.59C133.81,-104.39 140.96,-94.23 147.15,-85.43"/>
<polygon fill="#63b8ff" stroke="#63b8ff" points="149.82,-87.73 152.71,-77.54 144.09,-83.7 149.82,-87.73"/>
</a>
</g>
</g>
<!-- Node6 -->
<g id="Node000006" class="node">
<title>Node6</title>
<g id="a_Node000006"><a xlink:title=" ">
<polygon fill="#e0e0e0" stroke="#999999" points="278.12,-76 202.12,-76 202.12,-56 278.12,-56 278.12,-76"/>
<text xml:space="preserve" text-anchor="middle" x="240.12" y="-62.5" font-family="Helvetica,sans-Serif" font-size="10.00">avr/interrupt.h</text>
</a>
</g>
</g>
<!-- Node1&#45;&gt;Node6 -->
<g id="edge6_Node000001_Node000006" class="edge">
<title>Node1&#45;&gt;Node6</title>
<g id="a_edge6_Node000001_Node000006"><a xlink:title=" ">
<path fill="none" stroke="#63b8ff" d="M142.68,-111.59C161.01,-103.21 188.11,-90.8 209.08,-81.21"/>
<polygon fill="#63b8ff" stroke="#63b8ff" points="210.4,-84.45 218.03,-77.11 207.48,-78.09 210.4,-84.45"/>
</a>
</g>
</g>
<!-- Node2&#45;&gt;Node3 -->
<g id="edge2_Node000002_Node000003" class="edge">
<title>Node2&#45;&gt;Node3</title>
<g id="a_edge2_Node000002_Node000003"><a xlink:title=" ">
<path fill="none" stroke="#63b8ff" d="M74.5,-55.59C65.84,-47.93 53.39,-36.91 43.04,-27.75"/>
<polygon fill="#63b8ff" stroke="#63b8ff" points="45.57,-25.31 35.76,-21.3 40.93,-30.55 45.57,-25.31"/>
</a>
</g>
</g>
<!-- Node4 -->
<g id="Node000004" class="node">
<title>Node4</title>
<g id="a_Node000004"><a xlink:title=" ">
<polygon fill="#e0e0e0" stroke="#999999" points="117.75,-20 66.5,-20 66.5,0 117.75,0 117.75,-20"/>
<text xml:space="preserve" text-anchor="middle" x="92.12" y="-6.5" font-family="Helvetica,sans-Serif" font-size="10.00">stddef.h</text>
</a>
</g>
</g>
<!-- Node2&#45;&gt;Node4 -->
<g id="edge3_Node000002_Node000004" class="edge">
<title>Node2&#45;&gt;Node4</title>
<g id="a_edge3_Node000002_Node000004"><a xlink:title=" ">
<path fill="none" stroke="#63b8ff" d="M86.34,-55.59C87.21,-48.93 88.4,-39.75 89.48,-31.44"/>
<polygon fill="#63b8ff" stroke="#63b8ff" points="92.91,-32.17 90.73,-21.8 85.97,-31.27 92.91,-32.17"/>
</a>
</g>
</g>
</g>
</svg>
</svg>

<style type='text/css'>
<![CDATA[
[data-mouse-over-selected='false'] { opacity: 0.7; }
[data-mouse-over-selected='true']  { opacity: 1.0; }
]]>
</style>
<script type="application/ecmascript"><![CDATA[
document.addEventListener('DOMContentLoaded', (event) => {
  highlightEdges();
  highlightAdjacentNodes();
});
]]></script>
</svg>
