<?xml version="1.0" encoding="UTF-8" standalone="no"?>
<!DOCTYPE svg PUBLIC "-//W3C//DTD SVG 1.1//EN"
 "http://www.w3.org/Graphics/SVG/1.1/DTD/svg11.dtd">
<!-- Generated by graphviz version 14.1.4 (20260321.0153)
 -->
<!-- Title: inc/twi.h Pages: 1 -->
<svg width="448pt" height="84pt"
 viewBox="0.00 0.00 448.00 84.00" xmlns="http://www.w3.org/2000/svg" xmlns:xlink="http://www.w3.org/1999/xlink">
<g id="graph0" class="graph" transform="scale(1 1) rotate(0) translate(4 80)">
<title>inc/twi.h</title>
<!-- Node1 -->
<g id="Node000001" class="node">
<title>Node1</title>
<g id="a_Node000001"><a xlink:title="Interface pública do driver TWI/I2C para AVR.">
<polygon fill="#999999" stroke="#666666" points="275,-76 222.25,-76 222.25,-56 275,-56 275,-76"/>
<text xml:space="preserve" text-anchor="middle" x="248.62" y="-62.5" font-family="Helvetica,sans-Serif" font-size="10.00">inc/twi.h</text>
</a>
</g>
</g>
<!-- Node2 -->
<g id="Node000002" class="node">
<title>Node2</title>
<g id="a_Node000002"><a xlink:href="example1_8c.html" target="_top" xlink:title="Exemplo 1: Operação Master simples (Escrita e Leitura assíncrona).">
<polygon fill="white" stroke="#666666" points="111.25,-20 0,-20 0,0 111.25,0 111.25,-20"/>
<text xml:space="preserve" text-anchor="middle" x="55.62" y="-6.5" font-family="Helvetica,sans-Serif" font-size="10.00">examples/example1.c</text>
</a>
</g>
</g>
<!-- Node1&#45;&gt;Node2 -->
<g id="edge1_Node000001_Node000002" class="edge">
<title>Node1&#45;&gt;Node2</title>
<g id="a_edge1_Node000001_Node000002"><a xlink:title=" ">
<path fill="none" stroke="#63b8ff" d="M210.97,-54.46C175.66,-44.58 123.35,-29.95 89.37,-20.44"/>
<polygon fill="#63b8ff" stroke="#63b8ff" points="209.76,-57.76 220.33,-57.08 211.64,-51.02 209.76,-57.76"/>
</a>
</g>
</g>
<!-- Node3 -->
<g id="Node000003" class="node">
<title>Node3</title>
<g id="a_Node000003"><a xlink:href="example2_8c.html" target="_top" xlink:title="Exemplo 2: Operação Slave completa (Responde ao Master do Exemplo 1).">
<polygon fill="white" stroke="#666666" points="240.25,-20 129,-20 129,0 240.25,0 240.25,-20"/>
<text xml:space="preserve" text-anchor="middle" x="184.62" y="-6.5" font-family="Helvetica,sans-Serif" font-size="10.00">examples/example2.c</text>
</a>
</g>
</g>
<!-- Node1&#45;&gt;Node3 -->
<g id="edge2_Node000001_Node000003" class="edge">
<title>Node1&#45;&gt;Node3</title>
<g id="a_edge2_Node000001_Node000003"><a xlink:title=" ">
<path fill="none" stroke="#63b8ff" d="M228.95,-48.4C218.01,-39.17 204.78,-28.01 195.65,-20.3"/>
<polygon fill="#63b8ff" stroke="#63b8ff" points="226.42,-50.84 236.32,-54.62 230.93,-45.49 226.42,-50.84"/>
</a>
</g>
</g>
<!-- Node4 -->
<g id="Node000004" class="node">
<title>Node4</title>
<g id="a_Node000004"><a xlink:href="example3_8c.html" target="_top" xlink:title="Exemplo 3: Leitura do registrador WHO_AM_I do sensor MPU6050.">
<polygon fill="white" stroke="#666666" points="369.25,-20 258,-20 258,0 369.25,0 369.25,-20"/>
<text xml:space="preserve" text-anchor="middle" x="313.62" y="-6.5" font-family="Helvetica,sans-Serif" font-size="10.00">examples/example3.c</text>
</a>
</g>
</g>
<!-- Node1&#45;&gt;Node4 -->
<g id="edge3_Node000001_Node000004" class="edge">
<title>Node1&#45;&gt;Node4</title>
<g id="a_edge3_Node000001_Node000004"><a xlink:title=" ">
<path fill="none" stroke="#63b8ff" d="M268.6,-48.4C279.72,-39.17 293.15,-28.01 302.43,-20.3"/>
<polygon fill="#63b8ff" stroke="#63b8ff" points="266.57,-45.54 261.11,-54.63 271.04,-50.93 266.57,-45.54"/>
</a>
</g>
</g>
<!-- Node5 -->
<g id="Node000005" class="node">
<title>Node5</title>
<g id="a_Node000005"><a xlink:href="twi_8c.html" target="_top" xlink:title="Implementação do Driver TWI/I2C para microcontroladores AVR.">
<polygon fill="white" stroke="#666666" points="440.38,-20 386.88,-20 386.88,0 440.38,0 440.38,-20"/>
<text xml:space="preserve" text-anchor="middle" x="413.62" y="-6.5" font-family="Helvetica,sans-Serif" font-size="10.00">src/twi.c</text>
</a>
</g>
</g>
<!-- Node1&#45;&gt;Node5 -->
<g id="edge4_Node000001_Node000005" class="edge">
<title>Node1&#45;&gt;Node5</title>
<g id="a_edge4_Node000001_Node000005"><a xlink:title=" ">
<path fill="none" stroke="#63b8ff" d="M285.83,-52.82C316.47,-42.8 359.19,-28.81 386.63,-19.83"/>
<polygon fill="#63b8ff" stroke="#63b8ff" points="284.99,-49.42 276.57,-55.85 287.17,-56.07 284.99,-49.42"/>
</a>
</g>
</g>
</g>
</svg>
