<?xml version="1.0" encoding="UTF-8" standalone="no"?>
<!DOCTYPE svg PUBLIC "-//W3C//DTD SVG 1.1//EN"
 "http://www.w3.org/Graphics/SVG/1.1/DTD/svg11.dtd">
<!-- Generated by graphviz version 14.1.4 (20260321.0153)
 -->
<!-- Title: examples/example1.c Pages: 1 -->
<svg width="427pt" height="196pt"
 viewBox="0.00 0.00 427.00 196.00" xmlns="http://www.w3.org/2000/svg" xmlns:xlink="http://www.w3.org/1999/xlink">

<svg id="main" version="1.1" xmlns="http://www.w3.org/2000/svg" xmlns:xlink="http://www.w3.org/1999/xlink" xml:space="preserve">

<style type="text/css"><![CDATA[
.node, .edge {opacity: 0.7;}
.node.selected, .edge.selected {opacity: 1;}
.edge:hover path { stroke: red; }
.edge:hover polygon { stroke: red; fill: red; }
]]></style>
<script type="application/ecmascript" xlink:href="svg.min.js"/>
<svg id="graph" class="graph">
<g id="graph0" class="graph" transform="scale(1 1) rotate(0) translate(4 192)">
<title>examples/example1.c</title>
<!-- Node1 -->
<g id="Node000001" class="node">
<title>Node1</title>
<g id="a_Node000001"><a xlink:title="Exemplo 1: Operação Master simples (Escrita e Leitura assíncrona).">
<polygon fill="#999999" stroke="#666666" points="224.75,-188 113.5,-188 113.5,-168 224.75,-168 224.75,-188"/>
<text xml:space="preserve" text-anchor="middle" x="169.12" y="-174.5" font-family="Helvetica,sans-Serif" font-size="10.00">examples/example1.c</text>
</a>
</g>
</g>
<!-- Node2 -->
<g id="Node000002" class="node">
<title>Node2</title>
<g id="a_Node000002"><a xlink:title=" ">
<polygon fill="#e0e0e0" stroke="#999999" points="48.25,-132 0,-132 0,-112 48.25,-112 48.25,-132"/>
<text xml:space="preserve" text-anchor="middle" x="24.12" y="-118.5" font-family="Helvetica,sans-Serif" font-size="10.00">avr/io.h</text>
</a>
</g>
</g>
<!-- Node1&#45;&gt;Node2 -->
<g id="edge1_Node000001_Node000002" class="edge">
<title>Node1&#45;&gt;Node2</title>
<g id="a_edge1_Node000001_Node000002"><a xlink:title=" ">
<path fill="none" stroke="#63b8ff" d="M143.87,-167.59C120.44,-158.87 85.35,-145.8 59.21,-136.06"/>
<polygon fill="#63b8ff" stroke="#63b8ff" points="60.62,-132.86 50.03,-132.65 58.18,-139.42 60.62,-132.86"/>
</a>
</g>
</g>
<!-- Node3 -->
<g id="Node000003" class="node">
<title>Node3</title>
<g id="a_Node000003"><a xlink:title=" ">
<polygon fill="#e0e0e0" stroke="#999999" points="128.38,-132 65.88,-132 65.88,-112 128.38,-112 128.38,-132"/>
<text xml:space="preserve" text-anchor="middle" x="97.12" y="-118.5" font-family="Helvetica,sans-Serif" font-size="10.00">util/delay.h</text>
</a>
</g>
</g>
<!-- Node1&#45;&gt;Node3 -->
<g id="edge2_Node000001_Node000003" class="edge">
<title>Node1&#45;&gt;Node3</title>
<g id="a_edge2_Node000001_Node000003"><a xlink:title=" ">
<path fill="none" stroke="#63b8ff" d="M156.58,-167.59C146.16,-159.77 131.08,-148.46 118.71,-139.19"/>
<polygon fill="#63b8ff" stroke="#63b8ff" points="120.83,-136.41 110.73,-133.21 116.63,-142.01 120.83,-136.41"/>
</a>
</g>
</g>
<!-- Node4 -->
<g id="Node000004" class="node">
<title>Node4</title>
<g id="a_Node000004"><a xlink:title=" ">
<polygon fill="#e0e0e0" stroke="#999999" points="191.75,-132 146.5,-132 146.5,-112 191.75,-112 191.75,-132"/>
<text xml:space="preserve" text-anchor="middle" x="169.12" y="-118.5" font-family="Helvetica,sans-Serif" font-size="10.00">stdio.h</text>
</a>
</g>
</g>
<!-- Node1&#45;&gt;Node4 -->
<g id="edge3_Node000001_Node000004" class="edge">
<title>Node1&#45;&gt;Node4</title>
<g id="a_edge3_Node000001_Node000004"><a xlink:title=" ">
<path fill="none" stroke="#63b8ff" d="M169.12,-167.59C169.12,-161.01 169.12,-151.96 169.12,-143.73"/>
<polygon fill="#63b8ff" stroke="#63b8ff" points="172.63,-143.81 169.13,-133.81 165.63,-143.81 172.63,-143.81"/>
</a>
</g>
</g>
<!-- Node5 -->
<g id="Node000005" class="node">
<title>Node5</title>
<g id="a_Node000005"><a xlink:title=" ">
<polygon fill="#e0e0e0" stroke="#999999" points="286.12,-132 210.12,-132 210.12,-112 286.12,-112 286.12,-132"/>
<text xml:space="preserve" text-anchor="middle" x="248.12" y="-118.5" font-family="Helvetica,sans-Serif" font-size="10.00">avr/interrupt.h</text>
</a>
</g>
</g>
<!-- Node1&#45;&gt;Node5 -->
<g id="edge4_Node000001_Node000005" class="edge">
<title>Node1&#45;&gt;Node5</title>
<g id="a_edge4_Node000001_Node000005"><a xlink:title=" ">
<path fill="none" stroke="#63b8ff" d="M182.89,-167.59C194.48,-159.67 211.32,-148.16 224.99,-138.82"/>
<polygon fill="#63b8ff" stroke="#63b8ff" points="226.73,-141.87 233.01,-133.33 222.78,-136.09 226.73,-141.87"/>
</a>
</g>
</g>
<!-- Node6 -->
<g id="Node000006" class="node">
<title>Node6</title>
<g id="a_Node000006"><a xlink:href="twi_8h.html" target="_top" xlink:title="Interface pública do driver TWI/I2C para AVR.">
<polygon fill="white" stroke="#666666" points="341.62,-132 304.62,-132 304.62,-112 341.62,-112 341.62,-132"/>
<text xml:space="preserve" text-anchor="middle" x="323.12" y="-118.5" font-family="Helvetica,sans-Serif" font-size="10.00">twi.h</text>
</a>
</g>
</g>
<!-- Node1&#45;&gt;Node6 -->
<g id="edge5_Node000001_Node000006" class="edge">
<title>Node1&#45;&gt;Node6</title>
<g id="a_edge5_Node000001_Node000006"><a xlink:title=" ">
<path fill="none" stroke="#63b8ff" d="M195.95,-167.59C223.22,-158.03 265.35,-143.26 293.56,-133.37"/>
<polygon fill="#63b8ff" stroke="#63b8ff" points="294.65,-136.69 302.93,-130.08 292.33,-130.09 294.65,-136.69"/>
</a>
</g>
</g>
<!-- Node7 -->
<g id="Node000007" class="node">
<title>Node7</title>
<g id="a_Node000007"><a xlink:href="twi__types_8h.html" target="_top" xlink:title="Definições de tipos, enumerações e assinaturas de callback do driver TWI.">
<polygon fill="white" stroke="#666666" points="295.25,-76 229,-76 229,-56 295.25,-56 295.25,-76"/>
<text xml:space="preserve" text-anchor="middle" x="262.12" y="-62.5" font-family="Helvetica,sans-Serif" font-size="10.00">twi_types.h</text>
</a>
</g>
</g>
<!-- Node6&#45;&gt;Node7 -->
<g id="edge6_Node000006_Node000007" class="edge">
<title>Node6&#45;&gt;Node7</title>
<g id="a_edge6_Node000006_Node000007"><a xlink:title=" ">
<path fill="none" stroke="#63b8ff" d="M312.5,-111.59C303.84,-103.93 291.39,-92.91 281.04,-83.75"/>
<polygon fill="#63b8ff" stroke="#63b8ff" points="283.57,-81.31 273.76,-77.3 278.93,-86.55 283.57,-81.31"/>
</a>
</g>
</g>
<!-- Node9 -->
<g id="Node000009" class="node">
<title>Node9</title>
<g id="a_Node000009"><a xlink:title=" ">
<polygon fill="#e0e0e0" stroke="#999999" points="348.75,-20 297.5,-20 297.5,0 348.75,0 348.75,-20"/>
<text xml:space="preserve" text-anchor="middle" x="323.12" y="-6.5" font-family="Helvetica,sans-Serif" font-size="10.00">stddef.h</text>
</a>
</g>
</g>
<!-- Node6&#45;&gt;Node9 -->
<g id="edge10_Node000006_Node000009" class="edge">
<title>Node6&#45;&gt;Node9</title>
<g id="a_edge10_Node000006_Node000009"><a xlink:title=" ">
<path fill="none" stroke="#63b8ff" d="M323.12,-111.62C323.12,-94.01 323.12,-55.59 323.12,-31.65"/>
<polygon fill="#63b8ff" stroke="#63b8ff" points="326.63,-31.87 323.13,-21.87 319.63,-31.87 326.63,-31.87"/>
</a>
</g>
</g>
<!-- Node10 -->
<g id="Node000010" class="node">
<title>Node10</title>
<g id="a_Node000010"><a xlink:href="twi__config_8h.html" target="_top" xlink:title="Configurações estáticas do driver TWI.">
<polygon fill="white" stroke="#666666" points="419.38,-76 350.88,-76 350.88,-56 419.38,-56 419.38,-76"/>
<text xml:space="preserve" text-anchor="middle" x="385.12" y="-62.5" font-family="Helvetica,sans-Serif" font-size="10.00">twi_config.h</text>
</a>
</g>
</g>
<!-- Node6&#45;&gt;Node10 -->
<g id="edge9_Node000006_Node000010" class="edge">
<title>Node6&#45;&gt;Node10</title>
<g id="a_edge9_Node000006_Node000010"><a xlink:title=" ">
<path fill="none" stroke="#63b8ff" d="M333.92,-111.59C342.73,-103.93 355.38,-92.91 365.9,-83.75"/>
<polygon fill="#63b8ff" stroke="#63b8ff" points="368.07,-86.5 373.31,-77.29 363.47,-81.22 368.07,-86.5"/>
</a>
</g>
</g>
<!-- Node8 -->
<g id="Node000008" class="node">
<title>Node8</title>
<g id="a_Node000008"><a xlink:title=" ">
<polygon fill="#e0e0e0" stroke="#999999" points="279.25,-20 231,-20 231,0 279.25,0 279.25,-20"/>
<text xml:space="preserve" text-anchor="middle" x="255.12" y="-6.5" font-family="Helvetica,sans-Serif" font-size="10.00">stdint.h</text>
</a>
</g>
</g>
<!-- Node7&#45;&gt;Node8 -->
<g id="edge7_Node000007_Node000008" class="edge">
<title>Node7&#45;&gt;Node8</title>
<g id="a_edge7_Node000007_Node000008"><a xlink:title=" ">
<path fill="none" stroke="#63b8ff" d="M260.91,-55.59C260.04,-48.93 258.85,-39.75 257.77,-31.44"/>
<polygon fill="#63b8ff" stroke="#63b8ff" points="261.28,-31.27 256.52,-21.8 254.34,-32.17 261.28,-31.27"/>
</a>
</g>
</g>
<!-- Node7&#45;&gt;Node9 -->
<g id="edge8_Node000007_Node000009" class="edge">
<title>Node7&#45;&gt;Node9</title>
<g id="a_edge8_Node000007_Node000009"><a xlink:title=" ">
<path fill="none" stroke="#63b8ff" d="M272.75,-55.59C281.41,-47.93 293.86,-36.91 304.21,-27.75"/>
<polygon fill="#63b8ff" stroke="#63b8ff" points="306.32,-30.55 311.49,-21.3 301.68,-25.31 306.32,-30.55"/>
</a>
</g>
</g>
</g>
</svg>
</svg>

<style type='text/css'>
<![CDATA[
[data-mouse-over-selected='false'] { opacity: 0.7; }
[data-mouse-over-selected='true']  { opacity: 1.0; }
]]>
</style>
<script type="application/ecmascript"><![CDATA[
document.addEventListener('DOMContentLoaded', (event) => {
  highlightEdges();
  highlightAdjacentNodes();
});
]]></script>
</svg>
