<?xml version="1.0" encoding="UTF-8" standalone="no"?>
<!DOCTYPE svg PUBLIC "-//W3C//DTD SVG 1.1//EN"
 "http://www.w3.org/Graphics/SVG/1.1/DTD/svg11.dtd">
<!-- Generated by graphviz version 14.1.4 (20260321.0153)
 -->
<!-- Title: examples/example2.c Pages: 1 -->
<svg width="347pt" height="196pt"
 viewBox="0.00 0.00 347.00 196.00" xmlns="http://www.w3.org/2000/svg" xmlns:xlink="http://www.w3.org/1999/xlink">

<svg id="main" version="1.1" xmlns="http://www.w3.org/2000/svg" xmlns:xlink="http://www.w3.org/1999/xlink" xml:space="preserve">

<style type="text/css"><![CDATA[
.node, .edge {opacity: 0.7;}
.node.selected, .edge.selected {opacity: 1;}
.edge:hover path { stroke: red; }
.edge:hover polygon { stroke: red; fill: red; }
]]></style>
<script type="application/ecmascript" xlink:href="svg.min.js"/>
<svg id="graph" class="graph">
<g id="graph0" class="graph" transform="scale(1 1) rotate(0) translate(4 192)">
<title>examples/example2.c</title>
<!-- Node1 -->
<g id="Node000001" class="node">
<title>Node1</title>
<g id="a_Node000001"><a xlink:title="Exemplo 2: Operação Slave completa (Responde ao Master do Exemplo 1).">
<polygon fill="#999999" stroke="#666666" points="183.75,-188 72.5,-188 72.5,-168 183.75,-168 183.75,-188"/>
<text xml:space="preserve" text-anchor="middle" x="128.12" y="-174.5" font-family="Helvetica,sans-Serif" font-size="10.00">examples/example2.c</text>
</a>
</g>
</g>
<!-- Node2 -->
<g id="Node000002" class="node">
<title>Node2</title>
<g id="a_Node000002"><a xlink:title=" ">
<polygon fill="#e0e0e0" stroke="#999999" points="48.25,-132 0,-132 0,-112 48.25,-112 48.25,-132"/>
<text xml:space="preserve" text-anchor="middle" x="24.12" y="-118.5" font-family="Helvetica,sans-Serif" font-size="10.00">avr/io.h</text>
</a>
</g>
</g>
<!-- Node1&#45;&gt;Node2 -->
<g id="edge1_Node000001_Node000002" class="edge">
<title>Node1&#45;&gt;Node2</title>
<g id="a_edge1_Node000001_Node000002"><a xlink:title=" ">
<path fill="none" stroke="#63b8ff" d="M110.01,-167.59C94.15,-159.36 70.84,-147.26 52.51,-137.74"/>
<polygon fill="#63b8ff" stroke="#63b8ff" points="54.21,-134.68 43.73,-133.18 50.99,-140.89 54.21,-134.68"/>
</a>
</g>
</g>
<!-- Node3 -->
<g id="Node000003" class="node">
<title>Node3</title>
<g id="a_Node000003"><a xlink:title=" ">
<polygon fill="#e0e0e0" stroke="#999999" points="111.75,-132 66.5,-132 66.5,-112 111.75,-112 111.75,-132"/>
<text xml:space="preserve" text-anchor="middle" x="89.12" y="-118.5" font-family="Helvetica,sans-Serif" font-size="10.00">stdio.h</text>
</a>
</g>
</g>
<!-- Node1&#45;&gt;Node3 -->
<g id="edge2_Node000001_Node000003" class="edge">
<title>Node1&#45;&gt;Node3</title>
<g id="a_edge2_Node000001_Node000003"><a xlink:title=" ">
<path fill="none" stroke="#63b8ff" d="M121.33,-167.59C116.13,-160.39 108.79,-150.23 102.44,-141.43"/>
<polygon fill="#63b8ff" stroke="#63b8ff" points="105.42,-139.58 96.73,-133.53 99.74,-143.68 105.42,-139.58"/>
</a>
</g>
</g>
<!-- Node4 -->
<g id="Node000004" class="node">
<title>Node4</title>
<g id="a_Node000004"><a xlink:title=" ">
<polygon fill="#e0e0e0" stroke="#999999" points="206.12,-132 130.12,-132 130.12,-112 206.12,-112 206.12,-132"/>
<text xml:space="preserve" text-anchor="middle" x="168.12" y="-118.5" font-family="Helvetica,sans-Serif" font-size="10.00">avr/interrupt.h</text>
</a>
</g>
</g>
<!-- Node1&#45;&gt;Node4 -->
<g id="edge3_Node000001_Node000004" class="edge">
<title>Node1&#45;&gt;Node4</title>
<g id="a_edge3_Node000001_Node000004"><a xlink:title=" ">
<path fill="none" stroke="#63b8ff" d="M135.09,-167.59C140.43,-160.39 147.95,-150.23 154.47,-141.43"/>
<polygon fill="#63b8ff" stroke="#63b8ff" points="157.2,-143.63 160.34,-133.51 151.57,-139.47 157.2,-143.63"/>
</a>
</g>
</g>
<!-- Node5 -->
<g id="Node000005" class="node">
<title>Node5</title>
<g id="a_Node000005"><a xlink:href="twi_8h.html" target="_top" xlink:title="Interface pública do driver TWI/I2C para AVR.">
<polygon fill="white" stroke="#666666" points="261.62,-132 224.62,-132 224.62,-112 261.62,-112 261.62,-132"/>
<text xml:space="preserve" text-anchor="middle" x="243.12" y="-118.5" font-family="Helvetica,sans-Serif" font-size="10.00">twi.h</text>
</a>
</g>
</g>
<!-- Node1&#45;&gt;Node5 -->
<g id="edge4_Node000001_Node000005" class="edge">
<title>Node1&#45;&gt;Node5</title>
<g id="a_edge4_Node000001_Node000005"><a xlink:title=" ">
<path fill="none" stroke="#63b8ff" d="M148.16,-167.59C166.38,-159.04 193.48,-146.31 214.08,-136.64"/>
<polygon fill="#63b8ff" stroke="#63b8ff" points="215.53,-139.82 223.09,-132.41 212.55,-133.49 215.53,-139.82"/>
</a>
</g>
</g>
<!-- Node6 -->
<g id="Node000006" class="node">
<title>Node6</title>
<g id="a_Node000006"><a xlink:href="twi__types_8h.html" target="_top" xlink:title="Definições de tipos, enumerações e assinaturas de callback do driver TWI.">
<polygon fill="white" stroke="#666666" points="215.25,-76 149,-76 149,-56 215.25,-56 215.25,-76"/>
<text xml:space="preserve" text-anchor="middle" x="182.12" y="-62.5" font-family="Helvetica,sans-Serif" font-size="10.00">twi_types.h</text>
</a>
</g>
</g>
<!-- Node5&#45;&gt;Node6 -->
<g id="edge5_Node000005_Node000006" class="edge">
<title>Node5&#45;&gt;Node6</title>
<g id="a_edge5_Node000005_Node000006"><a xlink:title=" ">
<path fill="none" stroke="#63b8ff" d="M232.5,-111.59C223.84,-103.93 211.39,-92.91 201.04,-83.75"/>
<polygon fill="#63b8ff" stroke="#63b8ff" points="203.57,-81.31 193.76,-77.3 198.93,-86.55 203.57,-81.31"/>
</a>
</g>
</g>
<!-- Node8 -->
<g id="Node000008" class="node">
<title>Node8</title>
<g id="a_Node000008"><a xlink:title=" ">
<polygon fill="#e0e0e0" stroke="#999999" points="268.75,-20 217.5,-20 217.5,0 268.75,0 268.75,-20"/>
<text xml:space="preserve" text-anchor="middle" x="243.12" y="-6.5" font-family="Helvetica,sans-Serif" font-size="10.00">stddef.h</text>
</a>
</g>
</g>
<!-- Node5&#45;&gt;Node8 -->
<g id="edge9_Node000005_Node000008" class="edge">
<title>Node5&#45;&gt;Node8</title>
<g id="a_edge9_Node000005_Node000008"><a xlink:title=" ">
<path fill="none" stroke="#63b8ff" d="M243.12,-111.62C243.12,-94.01 243.12,-55.59 243.12,-31.65"/>
<polygon fill="#63b8ff" stroke="#63b8ff" points="246.63,-31.87 243.13,-21.87 239.63,-31.87 246.63,-31.87"/>
</a>
</g>
</g>
<!-- Node9 -->
<g id="Node000009" class="node">
<title>Node9</title>
<g id="a_Node000009"><a xlink:href="twi__config_8h.html" target="_top" xlink:title="Configurações estáticas do driver TWI.">
<polygon fill="white" stroke="#666666" points="339.38,-76 270.88,-76 270.88,-56 339.38,-56 339.38,-76"/>
<text xml:space="preserve" text-anchor="middle" x="305.12" y="-62.5" font-family="Helvetica,sans-Serif" font-size="10.00">twi_config.h</text>
</a>
</g>
</g>
<!-- Node5&#45;&gt;Node9 -->
<g id="edge8_Node000005_Node000009" class="edge">
<title>Node5&#45;&gt;Node9</title>
<g id="a_edge8_Node000005_Node000009"><a xlink:title=" ">
<path fill="none" stroke="#63b8ff" d="M253.92,-111.59C262.73,-103.93 275.38,-92.91 285.9,-83.75"/>
<polygon fill="#63b8ff" stroke="#63b8ff" points="288.07,-86.5 293.31,-77.29 283.47,-81.22 288.07,-86.5"/>
</a>
</g>
</g>
<!-- Node7 -->
<g id="Node000007" class="node">
<title>Node7</title>
<g id="a_Node000007"><a xlink:title=" ">
<polygon fill="#e0e0e0" stroke="#999999" points="199.25,-20 151,-20 151,0 199.25,0 199.25,-20"/>
<text xml:space="preserve" text-anchor="middle" x="175.12" y="-6.5" font-family="Helvetica,sans-Serif" font-size="10.00">stdint.h</text>
</a>
</g>
</g>
<!-- Node6&#45;&gt;Node7 -->
<g id="edge6_Node000006_Node000007" class="edge">
<title>Node6&#45;&gt;Node7</title>
<g id="a_edge6_Node000006_Node000007"><a xlink:title=" ">
<path fill="none" stroke="#63b8ff" d="M180.91,-55.59C180.04,-48.93 178.85,-39.75 177.77,-31.44"/>
<polygon fill="#63b8ff" stroke="#63b8ff" points="181.28,-31.27 176.52,-21.8 174.34,-32.17 181.28,-31.27"/>
</a>
</g>
</g>
<!-- Node6&#45;&gt;Node8 -->
<g id="edge7_Node000006_Node000008" class="edge">
<title>Node6&#45;&gt;Node8</title>
<g id="a_edge7_Node000006_Node000008"><a xlink:title=" ">
<path fill="none" stroke="#63b8ff" d="M192.75,-55.59C201.41,-47.93 213.86,-36.91 224.21,-27.75"/>
<polygon fill="#63b8ff" stroke="#63b8ff" points="226.32,-30.55 231.49,-21.3 221.68,-25.31 226.32,-30.55"/>
</a>
</g>
</g>
</g>
</svg>
</svg>

<style type='text/css'>
<![CDATA[
[data-mouse-over-selected='false'] { opacity: 0.7; }
[data-mouse-over-selected='true']  { opacity: 1.0; }
]]>
</style>
<script type="application/ecmascript"><![CDATA[
document.addEventListener('DOMContentLoaded', (event) => {
  highlightEdges();
  highlightAdjacentNodes();
});
]]></script>
</svg>
