<?xml version="1.0" encoding="UTF-8" standalone="no"?>
<!DOCTYPE svg PUBLIC "-//W3C//DTD SVG 1.1//EN"
 "http://www.w3.org/Graphics/SVG/1.1/DTD/svg11.dtd">
<!-- Generated by graphviz version 14.1.4 (20260321.0153)
 -->
<!-- Title: USART_Transmite_String Pages: 1 -->
<svg width="444pt" height="135pt"
 viewBox="0.00 0.00 444.00 135.00" xmlns="http://www.w3.org/2000/svg" xmlns:xlink="http://www.w3.org/1999/xlink">
<g id="graph0" class="graph" transform="scale(1 1) rotate(0) translate(4 131.16)">
<title>USART_Transmite_String</title>
<!-- Node1 -->
<g id="Node000001" class="node">
<title>Node1</title>
<g id="a_Node000001"><a xlink:title=" ">
<polygon fill="#999999" stroke="#666666" points="436,-88.83 306.75,-88.83 306.75,-68.83 436,-68.83 436,-88.83"/>
<text xml:space="preserve" text-anchor="middle" x="371.38" y="-75.33" font-family="Helvetica,sans-Serif" font-size="10.00">USART_Transmite_String</text>
</a>
</g>
</g>
<!-- Node2 -->
<g id="Node000002" class="node">
<title>Node2</title>
<g id="a_Node000002"><a xlink:href="example2_8c.html#a840291bc02cba5474a4cb46a9b9566fe" target="_top" xlink:title="Ponto de entrada do Slave.">
<polygon fill="white" stroke="#666666" points="37,-85.83 0,-85.83 0,-65.83 37,-65.83 37,-85.83"/>
<text xml:space="preserve" text-anchor="middle" x="18.5" y="-72.33" font-family="Helvetica,sans-Serif" font-size="10.00">main</text>
</a>
</g>
</g>
<!-- Node1&#45;&gt;Node2 -->
<g id="edge1_Node000001_Node000002" class="edge">
<title>Node1&#45;&gt;Node2</title>
<g id="a_edge1_Node000001_Node000002"><a xlink:title=" ">
<path fill="none" stroke="#63b8ff" d="M333.96,-93.04C276.91,-113.15 163.63,-144.35 73,-114.83 55.73,-109.2 39.4,-95.66 29.43,-86.12"/>
<polygon fill="#63b8ff" stroke="#63b8ff" points="334.96,-96.4 343.17,-89.7 332.58,-89.81 334.96,-96.4"/>
</a>
</g>
</g>
<!-- Node3 -->
<g id="Node000003" class="node">
<title>Node3</title>
<g id="a_Node000003"><a xlink:href="example2_8c.html#a8c90411c4eede2e0397727033c45176f" target="_top" xlink:title="Callback de recebimento (Master &#45;&gt; Slave).">
<polygon fill="white" stroke="#666666" points="268.88,-47.83 205.62,-47.83 205.62,-27.83 268.88,-27.83 268.88,-47.83"/>
<text xml:space="preserve" text-anchor="middle" x="237.25" y="-34.33" font-family="Helvetica,sans-Serif" font-size="10.00">on_receive</text>
</a>
</g>
</g>
<!-- Node1&#45;&gt;Node3 -->
<g id="edge2_Node000001_Node000003" class="edge">
<title>Node1&#45;&gt;Node3</title>
<g id="a_edge2_Node000001_Node000003"><a xlink:title=" ">
<path fill="none" stroke="#63b8ff" d="M325.79,-64.99C307.18,-59.21 286.01,-52.65 269.15,-47.42"/>
<polygon fill="#63b8ff" stroke="#63b8ff" points="324.66,-68.3 335.25,-67.93 326.73,-61.62 324.66,-68.3"/>
</a>
</g>
</g>
<!-- Node6 -->
<g id="Node000006" class="node">
<title>Node6</title>
<g id="a_Node000006"><a xlink:href="example2_8c.html#a17a0a7ba53e28f208477b94daf43a35e" target="_top" xlink:title="Callback de transmissão (Slave &#45;&gt; Master).">
<polygon fill="white" stroke="#666666" points="270.75,-88.83 203.75,-88.83 203.75,-68.83 270.75,-68.83 270.75,-88.83"/>
<text xml:space="preserve" text-anchor="middle" x="237.25" y="-75.33" font-family="Helvetica,sans-Serif" font-size="10.00">on_transmit</text>
</a>
</g>
</g>
<!-- Node1&#45;&gt;Node6 -->
<g id="edge7_Node000001_Node000006" class="edge">
<title>Node1&#45;&gt;Node6</title>
<g id="a_edge7_Node000001_Node000006"><a xlink:title=" ">
<path fill="none" stroke="#63b8ff" d="M295.15,-78.83C286.78,-78.83 278.61,-78.83 271.19,-78.83"/>
<polygon fill="#63b8ff" stroke="#63b8ff" points="295.12,-82.33 305.12,-78.83 295.12,-75.33 295.12,-82.33"/>
</a>
</g>
</g>
<!-- Node3&#45;&gt;Node2 -->
<g id="edge3_Node000003_Node000002" class="edge">
<title>Node3&#45;&gt;Node2</title>
<g id="a_edge3_Node000003_Node000002"><a xlink:title=" ">
<path fill="none" stroke="#63b8ff" d="M206.73,-22.64C172.87,-7.46 116.45,10.89 73,-9.83 48.77,-21.38 31.95,-49.86 24.25,-65.37"/>
<polygon fill="#63b8ff" stroke="#63b8ff" points="204.97,-25.68 215.51,-26.76 207.95,-19.34 204.97,-25.68"/>
</a>
</g>
</g>
<!-- Node4 -->
<g id="Node000004" class="node">
<title>Node4</title>
<g id="a_Node000004"><a xlink:href="twi_8h.html#ace0b103ca42c617be55ddc1507dcc4ca" target="_top" xlink:title="Verifica se o barramento TWI está disponível para uma nova transação.">
<polygon fill="white" stroke="#666666" points="162.5,-88.83 78.25,-88.83 78.25,-68.83 162.5,-68.83 162.5,-88.83"/>
<text xml:space="preserve" text-anchor="middle" x="120.38" y="-75.33" font-family="Helvetica,sans-Serif" font-size="10.00">twi_bus_is_free</text>
</a>
</g>
</g>
<!-- Node3&#45;&gt;Node4 -->
<g id="edge4_Node000003_Node000004" class="edge">
<title>Node3&#45;&gt;Node4</title>
<g id="a_edge4_Node000003_Node000004"><a xlink:title=" ">
<path fill="none" stroke="#63b8ff" d="M196.39,-52.05C181.34,-57.42 164.51,-63.43 150.61,-68.39"/>
<polygon fill="#63b8ff" stroke="#63b8ff" points="197.3,-55.44 205.54,-48.79 194.94,-48.85 197.3,-55.44"/>
</a>
</g>
</g>
<!-- Node5 -->
<g id="Node000005" class="node">
<title>Node5</title>
<g id="a_Node000005"><a xlink:href="twi_8c.html#a34c56c0dd6b7b72b6d7eb3b2b1ec4b00" target="_top" xlink:title="Registra os callbacks de eventos para o modo Slave.">
<polygon fill="white" stroke="#666666" points="167.75,-50.83 73,-50.83 73,-18.83 167.75,-18.83 167.75,-50.83"/>
<text xml:space="preserve" text-anchor="start" x="81" y="-37.33" font-family="Helvetica,sans-Serif" font-size="10.00">twi_slave_register</text>
<text xml:space="preserve" text-anchor="middle" x="120.38" y="-25.33" font-family="Helvetica,sans-Serif" font-size="10.00">_callbacks</text>
</a>
</g>
</g>
<!-- Node3&#45;&gt;Node5 -->
<g id="edge5_Node000003_Node000005" class="edge">
<title>Node3&#45;&gt;Node5</title>
<g id="a_edge5_Node000003_Node000005"><a xlink:title=" ">
<path fill="none" stroke="#63b8ff" d="M193.72,-36.72C185.35,-36.5 176.52,-36.27 168.03,-36.04"/>
<polygon fill="#63b8ff" stroke="#63b8ff" points="193.56,-40.21 203.65,-36.97 193.74,-33.21 193.56,-40.21"/>
</a>
</g>
</g>
<!-- Node5&#45;&gt;Node2 -->
<g id="edge6_Node000005_Node000002" class="edge">
<title>Node5&#45;&gt;Node2</title>
<g id="a_edge6_Node000005_Node000002"><a xlink:title=" ">
<path fill="none" stroke="#63b8ff" d="M68.98,-55.52C57.64,-60.17 46.34,-64.81 37.4,-68.48"/>
<polygon fill="#63b8ff" stroke="#63b8ff" points="70.01,-58.88 77.93,-51.84 67.35,-52.4 70.01,-58.88"/>
</a>
</g>
</g>
<!-- Node6&#45;&gt;Node2 -->
<g id="edge8_Node000006_Node000002" class="edge">
<title>Node6&#45;&gt;Node2</title>
<g id="a_edge8_Node000006_Node000002"><a xlink:title=" ">
<path fill="none" stroke="#63b8ff" d="M194.76,-92.26C185.93,-94.58 176.61,-96.62 167.75,-97.83 126.02,-103.51 114.31,-105.99 73,-97.83 60.59,-95.37 47.43,-90.01 37.27,-85.19"/>
<polygon fill="#63b8ff" stroke="#63b8ff" points="195.44,-95.71 204.13,-89.64 193.56,-88.97 195.44,-95.71"/>
</a>
</g>
</g>
<!-- Node6&#45;&gt;Node4 -->
<g id="edge9_Node000006_Node000004" class="edge">
<title>Node6&#45;&gt;Node4</title>
<g id="a_edge9_Node000006_Node000004"><a xlink:title=" ">
<path fill="none" stroke="#63b8ff" d="M192,-78.83C182.44,-78.83 172.36,-78.83 162.9,-78.83"/>
<polygon fill="#63b8ff" stroke="#63b8ff" points="191.82,-82.33 201.82,-78.83 191.82,-75.33 191.82,-82.33"/>
</a>
</g>
</g>
<!-- Node6&#45;&gt;Node5 -->
<g id="edge10_Node000006_Node000005" class="edge">
<title>Node6&#45;&gt;Node5</title>
<g id="a_edge10_Node000006_Node000005"><a xlink:title=" ">
<path fill="none" stroke="#63b8ff" d="M198.47,-64.36C187.48,-60.15 175.4,-55.52 164.12,-51.2"/>
<polygon fill="#63b8ff" stroke="#63b8ff" points="197.02,-67.55 207.61,-67.86 199.53,-61.01 197.02,-67.55"/>
</a>
</g>
</g>
</g>
</svg>
