<?xml version="1.0" encoding="UTF-8" standalone="no"?>
<!DOCTYPE svg PUBLIC "-//W3C//DTD SVG 1.1//EN"
 "http://www.w3.org/Graphics/SVG/1.1/DTD/svg11.dtd">
<!-- Generated by graphviz version 14.1.4 (20260321.0153)
 -->
<!-- Title: USART_Transmite_String Pages: 1 -->
<svg width="455pt" height="116pt"
 viewBox="0.00 0.00 455.00 116.00" xmlns="http://www.w3.org/2000/svg" xmlns:xlink="http://www.w3.org/1999/xlink">
<g id="graph0" class="graph" transform="scale(1 1) rotate(0) translate(4 112)">
<title>USART_Transmite_String</title>
<!-- Node1 -->
<g id="Node000001" class="node">
<title>Node1</title>
<g id="a_Node000001"><a xlink:title="Envia uma string via UART0.">
<polygon fill="#999999" stroke="#666666" points="447.25,-108 318,-108 318,-88 447.25,-88 447.25,-108"/>
<text xml:space="preserve" text-anchor="middle" x="382.62" y="-94.5" font-family="Helvetica,sans-Serif" font-size="10.00">USART_Transmite_String</text>
</a>
</g>
</g>
<!-- Node2 -->
<g id="Node000002" class="node">
<title>Node2</title>
<g id="a_Node000002"><a xlink:href="example1_8c.html#a840291bc02cba5474a4cb46a9b9566fe" target="_top" xlink:title="Ponto de entrada principal da aplicação.">
<polygon fill="white" stroke="#666666" points="37,-108 0,-108 0,-88 37,-88 37,-108"/>
<text xml:space="preserve" text-anchor="middle" x="18.5" y="-94.5" font-family="Helvetica,sans-Serif" font-size="10.00">main</text>
</a>
</g>
</g>
<!-- Node1&#45;&gt;Node2 -->
<g id="edge1_Node000001_Node000002" class="edge">
<title>Node1&#45;&gt;Node2</title>
<g id="a_edge1_Node000001_Node000002"><a xlink:title=" ">
<path fill="none" stroke="#63b8ff" d="M306.42,-101.85C243.91,-104.42 152.62,-106.71 73,-103 61.07,-102.44 47.7,-101.19 37.3,-100.08"/>
<polygon fill="#63b8ff" stroke="#63b8ff" points="306.4,-105.36 316.24,-101.44 306.1,-98.36 306.4,-105.36"/>
</a>
</g>
</g>
<!-- Node3 -->
<g id="Node000003" class="node">
<title>Node3</title>
<g id="a_Node000003"><a xlink:href="example1_8c.html#ad9b05939593a1d19d76cdd8ea94edb17" target="_top" xlink:title="Callback de conclusão para transações Master.">
<polygon fill="white" stroke="#666666" points="282,-89 210.5,-89 210.5,-69 282,-69 282,-89"/>
<text xml:space="preserve" text-anchor="middle" x="246.25" y="-75.5" font-family="Helvetica,sans-Serif" font-size="10.00">on_complete</text>
</a>
</g>
</g>
<!-- Node1&#45;&gt;Node3 -->
<g id="edge2_Node000001_Node000003" class="edge">
<title>Node1&#45;&gt;Node3</title>
<g id="a_edge2_Node000001_Node000003"><a xlink:title=" ">
<path fill="none" stroke="#63b8ff" d="M306.19,-87.33C297.87,-86.16 289.72,-85.01 282.27,-83.95"/>
<polygon fill="#63b8ff" stroke="#63b8ff" points="305.7,-90.8 316.09,-88.73 306.68,-83.87 305.7,-90.8"/>
</a>
</g>
</g>
<!-- Node3&#45;&gt;Node2 -->
<g id="edge3_Node000003_Node000002" class="edge">
<title>Node3&#45;&gt;Node2</title>
<g id="a_edge3_Node000003_Node000002"><a xlink:title=" ">
<path fill="none" stroke="#63b8ff" d="M199.03,-82.89C149.13,-87.09 72.14,-93.57 37.49,-96.49"/>
<polygon fill="#63b8ff" stroke="#63b8ff" points="199.29,-86.38 208.96,-82.05 198.7,-79.41 199.29,-86.38"/>
</a>
</g>
</g>
<!-- Node4 -->
<g id="Node000004" class="node">
<title>Node4</title>
<g id="a_Node000004"><a xlink:href="twi_8h.html#ace0b103ca42c617be55ddc1507dcc4ca" target="_top" xlink:title="Verifica se o barramento TWI está disponível para uma nova transação.">
<polygon fill="white" stroke="#666666" points="165.88,-70 81.62,-70 81.62,-50 165.88,-50 165.88,-70"/>
<text xml:space="preserve" text-anchor="middle" x="123.75" y="-56.5" font-family="Helvetica,sans-Serif" font-size="10.00">twi_bus_is_free</text>
</a>
</g>
</g>
<!-- Node3&#45;&gt;Node4 -->
<g id="edge4_Node000003_Node000004" class="edge">
<title>Node3&#45;&gt;Node4</title>
<g id="a_edge4_Node000003_Node000004"><a xlink:title=" ">
<path fill="none" stroke="#63b8ff" d="M198.73,-71.67C187.99,-69.97 176.64,-68.18 166.14,-66.53"/>
<polygon fill="#63b8ff" stroke="#63b8ff" points="198.15,-75.12 208.58,-73.22 199.24,-68.2 198.15,-75.12"/>
</a>
</g>
</g>
<!-- Node5 -->
<g id="Node000005" class="node">
<title>Node5</title>
<g id="a_Node000005"><a xlink:href="twi_8c.html#a21f0cd2bbdf528b20ad08d8e1284693e" target="_top" xlink:title="Registra os callbacks de eventos para o modo Master.">
<polygon fill="white" stroke="#666666" points="174.5,-32 73,-32 73,0 174.5,0 174.5,-32"/>
<text xml:space="preserve" text-anchor="start" x="81" y="-18.5" font-family="Helvetica,sans-Serif" font-size="10.00">twi_master_register</text>
<text xml:space="preserve" text-anchor="middle" x="123.75" y="-6.5" font-family="Helvetica,sans-Serif" font-size="10.00">_callbacks</text>
</a>
</g>
</g>
<!-- Node3&#45;&gt;Node5 -->
<g id="edge5_Node000003_Node000005" class="edge">
<title>Node3&#45;&gt;Node5</title>
<g id="a_edge5_Node000003_Node000005"><a xlink:title=" ">
<path fill="none" stroke="#63b8ff" d="M216.06,-63.09C203.34,-56.22 188.22,-48.13 174.5,-41 169.1,-38.19 163.34,-35.25 157.73,-32.41"/>
<polygon fill="#63b8ff" stroke="#63b8ff" points="214.32,-66.13 224.78,-67.81 217.65,-59.97 214.32,-66.13"/>
</a>
</g>
</g>
<!-- Node5&#45;&gt;Node2 -->
<g id="edge6_Node000005_Node000002" class="edge">
<title>Node5&#45;&gt;Node2</title>
<g id="a_edge6_Node000005_Node000002"><a xlink:title=" ">
<path fill="none" stroke="#63b8ff" d="M76.56,-38.46C75.34,-39.29 74.15,-40.14 73,-41 54.51,-54.8 36.99,-75.41 27.3,-87.7"/>
<polygon fill="#63b8ff" stroke="#63b8ff" points="78.32,-41.49 84.97,-33.24 74.63,-35.54 78.32,-41.49"/>
</a>
</g>
</g>
</g>
</svg>
