<?xml version="1.0" encoding="UTF-8" standalone="no"?>
<!DOCTYPE svg PUBLIC "-//W3C//DTD SVG 1.1//EN"
 "http://www.w3.org/Graphics/SVG/1.1/DTD/svg11.dtd">
<!-- Generated by graphviz version 14.1.4 (20260321.0153)
 -->
<!-- Title: twi_bus_is_free Pages: 1 -->
<svg width="365pt" height="104pt"
 viewBox="0.00 0.00 365.00 104.00" xmlns="http://www.w3.org/2000/svg" xmlns:xlink="http://www.w3.org/1999/xlink">
<g id="graph0" class="graph" transform="scale(1 1) rotate(0) translate(4 100)">
<title>twi_bus_is_free</title>
<!-- Node1 -->
<g id="Node000001" class="node">
<title>Node1</title>
<g id="a_Node000001"><a xlink:title="Verifica se o barramento TWI está disponível para uma nova transação.">
<polygon fill="#999999" stroke="#666666" points="84.25,-58 0,-58 0,-38 84.25,-38 84.25,-58"/>
<text xml:space="preserve" text-anchor="middle" x="42.12" y="-44.5" font-family="Helvetica,sans-Serif" font-size="10.00">twi_bus_is_free</text>
</a>
</g>
</g>
<!-- Node2 -->
<g id="Node000002" class="node">
<title>Node2</title>
<g id="a_Node000002"><a xlink:href="example1_8c.html#ad9b05939593a1d19d76cdd8ea94edb17" target="_top" xlink:title="Callback de conclusão para transações Master.">
<polygon fill="white" stroke="#666666" points="191.75,-96 120.25,-96 120.25,-76 191.75,-76 191.75,-96"/>
<text xml:space="preserve" text-anchor="middle" x="156" y="-82.5" font-family="Helvetica,sans-Serif" font-size="10.00">on_complete</text>
</a>
</g>
</g>
<!-- Node1&#45;&gt;Node2 -->
<g id="edge1_Node000001_Node000002" class="edge">
<title>Node1&#45;&gt;Node2</title>
<g id="a_edge1_Node000001_Node000002"><a xlink:title=" ">
<path fill="none" stroke="#63b8ff" d="M73.99,-58.48C86.22,-62.64 100.46,-67.48 113.57,-71.93"/>
<polygon fill="#63b8ff" stroke="#63b8ff" points="112.21,-75.16 122.8,-75.06 114.46,-68.53 112.21,-75.16"/>
</a>
</g>
</g>
<!-- Node4 -->
<g id="Node000004" class="node">
<title>Node4</title>
<g id="a_Node000004"><a xlink:href="example2_8c.html#a8c90411c4eede2e0397727033c45176f" target="_top" xlink:title="Callback de recebimento (Master &#45;&gt; Slave).">
<polygon fill="white" stroke="#666666" points="187.62,-58 124.38,-58 124.38,-38 187.62,-38 187.62,-58"/>
<text xml:space="preserve" text-anchor="middle" x="156" y="-44.5" font-family="Helvetica,sans-Serif" font-size="10.00">on_receive</text>
</a>
</g>
</g>
<!-- Node1&#45;&gt;Node4 -->
<g id="edge3_Node000001_Node000004" class="edge">
<title>Node1&#45;&gt;Node4</title>
<g id="a_edge3_Node000001_Node000004"><a xlink:title=" ">
<path fill="none" stroke="#63b8ff" d="M84.47,-48C93.66,-48 103.41,-48 112.64,-48"/>
<polygon fill="#63b8ff" stroke="#63b8ff" points="112.46,-51.5 122.46,-48 112.46,-44.5 112.46,-51.5"/>
</a>
</g>
</g>
<!-- Node6 -->
<g id="Node000006" class="node">
<title>Node6</title>
<g id="a_Node000006"><a xlink:href="example2_8c.html#a17a0a7ba53e28f208477b94daf43a35e" target="_top" xlink:title="Callback de transmissão (Slave &#45;&gt; Master).">
<polygon fill="white" stroke="#666666" points="189.5,-20 122.5,-20 122.5,0 189.5,0 189.5,-20"/>
<text xml:space="preserve" text-anchor="middle" x="156" y="-6.5" font-family="Helvetica,sans-Serif" font-size="10.00">on_transmit</text>
</a>
</g>
</g>
<!-- Node1&#45;&gt;Node6 -->
<g id="edge5_Node000001_Node000006" class="edge">
<title>Node1&#45;&gt;Node6</title>
<g id="a_edge5_Node000001_Node000006"><a xlink:title=" ">
<path fill="none" stroke="#63b8ff" d="M73.99,-37.52C86.22,-33.36 100.46,-28.52 113.57,-24.07"/>
<polygon fill="#63b8ff" stroke="#63b8ff" points="114.46,-27.47 122.8,-20.94 112.21,-20.84 114.46,-27.47"/>
</a>
</g>
</g>
<!-- Node3 -->
<g id="Node000003" class="node">
<title>Node3</title>
<g id="a_Node000003"><a xlink:href="example1_8c.html#a30c5ce81613c9030d0f20e4c556f384e" target="_top" xlink:title="Envia uma string via UART0.">
<polygon fill="white" stroke="#666666" points="357,-96 227.75,-96 227.75,-76 357,-76 357,-96"/>
<text xml:space="preserve" text-anchor="middle" x="292.38" y="-82.5" font-family="Helvetica,sans-Serif" font-size="10.00">USART_Transmite_String</text>
</a>
</g>
</g>
<!-- Node2&#45;&gt;Node3 -->
<g id="edge2_Node000002_Node000003" class="edge">
<title>Node2&#45;&gt;Node3</title>
<g id="a_edge2_Node000002_Node000003"><a xlink:title=" ">
<path fill="none" stroke="#63b8ff" d="M191.95,-86C199.44,-86 207.62,-86 215.98,-86"/>
<polygon fill="#63b8ff" stroke="#63b8ff" points="215.92,-89.5 225.92,-86 215.92,-82.5 215.92,-89.5"/>
</a>
</g>
</g>
<!-- Node5 -->
<g id="Node000005" class="node">
<title>Node5</title>
<g id="a_Node000005"><a xlink:href="example2_8c.html#a30c5ce81613c9030d0f20e4c556f384e" target="_top" xlink:title=" ">
<polygon fill="white" stroke="#666666" points="357,-39 227.75,-39 227.75,-19 357,-19 357,-39"/>
<text xml:space="preserve" text-anchor="middle" x="292.38" y="-25.5" font-family="Helvetica,sans-Serif" font-size="10.00">USART_Transmite_String</text>
</a>
</g>
</g>
<!-- Node4&#45;&gt;Node5 -->
<g id="edge4_Node000004_Node000005" class="edge">
<title>Node4&#45;&gt;Node5</title>
<g id="a_edge4_Node000004_Node000005"><a xlink:title=" ">
<path fill="none" stroke="#63b8ff" d="M187.83,-43.64C196.39,-42.43 206.07,-41.06 215.99,-39.66"/>
<polygon fill="#63b8ff" stroke="#63b8ff" points="216.35,-43.14 225.76,-38.28 215.37,-36.21 216.35,-43.14"/>
</a>
</g>
</g>
<!-- Node6&#45;&gt;Node5 -->
<g id="edge6_Node000006_Node000005" class="edge">
<title>Node6&#45;&gt;Node5</title>
<g id="a_edge6_Node000006_Node000005"><a xlink:title=" ">
<path fill="none" stroke="#63b8ff" d="M189.87,-14.65C197.94,-15.79 206.9,-17.06 216.07,-18.35"/>
<polygon fill="#63b8ff" stroke="#63b8ff" points="215.43,-21.8 225.82,-19.73 216.41,-14.86 215.43,-21.8"/>
</a>
</g>
</g>
</g>
</svg>
