<?xml version="1.0" encoding="UTF-8" standalone="no"?>
<!DOCTYPE svg PUBLIC "-//W3C//DTD SVG 1.1//EN"
 "http://www.w3.org/Graphics/SVG/1.1/DTD/svg11.dtd">
<!-- Generated by graphviz version 14.1.4 (20260321.0153)
 -->
<!-- Title: src/twi.c Pages: 1 -->
<svg width="505pt" height="196pt"
 viewBox="0.00 0.00 505.00 196.00" xmlns="http://www.w3.org/2000/svg" xmlns:xlink="http://www.w3.org/1999/xlink">
<g id="graph0" class="graph" transform="scale(1 1) rotate(0) translate(4 192)">
<title>src/twi.c</title>
<!-- Node1 -->
<g id="Node000001" class="node">
<title>Node1</title>
<g id="a_Node000001"><a xlink:title="Implementação do Driver TWI/I2C para microcontroladores AVR.">
<polygon fill="#999999" stroke="#666666" points="318.88,-188 265.38,-188 265.38,-168 318.88,-168 318.88,-188"/>
<text xml:space="preserve" text-anchor="middle" x="292.12" y="-174.5" font-family="Helvetica,sans-Serif" font-size="10.00">src/twi.c</text>
</a>
</g>
</g>
<!-- Node2 -->
<g id="Node000002" class="node">
<title>Node2</title>
<g id="a_Node000002"><a xlink:href="twi_8h.html" target="_top" xlink:title="Interface pública do driver TWI/I2C para AVR.">
<polygon fill="white" stroke="#666666" points="310.62,-132 273.62,-132 273.62,-112 310.62,-112 310.62,-132"/>
<text xml:space="preserve" text-anchor="middle" x="292.12" y="-118.5" font-family="Helvetica,sans-Serif" font-size="10.00">twi.h</text>
</a>
</g>
</g>
<!-- Node1&#45;&gt;Node2 -->
<g id="edge1_Node000001_Node000002" class="edge">
<title>Node1&#45;&gt;Node2</title>
<g id="a_edge1_Node000001_Node000002"><a xlink:title=" ">
<path fill="none" stroke="#63b8ff" d="M292.12,-167.59C292.12,-161.01 292.12,-151.96 292.12,-143.73"/>
<polygon fill="#63b8ff" stroke="#63b8ff" points="295.63,-143.81 292.13,-133.81 288.63,-143.81 295.63,-143.81"/>
</a>
</g>
</g>
<!-- Node5 -->
<g id="Node000005" class="node">
<title>Node5</title>
<g id="a_Node000005"><a xlink:title=" ">
<polygon fill="#e0e0e0" stroke="#999999" points="317.75,-20 266.5,-20 266.5,0 317.75,0 317.75,-20"/>
<text xml:space="preserve" text-anchor="middle" x="292.12" y="-6.5" font-family="Helvetica,sans-Serif" font-size="10.00">stddef.h</text>
</a>
</g>
</g>
<!-- Node1&#45;&gt;Node5 -->
<g id="edge13_Node000001_Node000005" class="edge">
<title>Node1&#45;&gt;Node5</title>
<g id="a_edge13_Node000001_Node000005"><a xlink:title=" ">
<path fill="none" stroke="#63b8ff" d="M311.96,-167.53C350.04,-148.02 427.06,-101.39 397.12,-56 382.11,-33.23 352.94,-21.94 329.14,-16.37"/>
<polygon fill="#63b8ff" stroke="#63b8ff" points="329.96,-12.96 319.46,-14.37 328.55,-19.82 329.96,-12.96"/>
</a>
</g>
</g>
<!-- Node6 -->
<g id="Node000006" class="node">
<title>Node6</title>
<g id="a_Node000006"><a xlink:href="twi__config_8h.html" target="_top" xlink:title="Configurações estáticas do driver TWI.">
<polygon fill="white" stroke="#666666" points="388.38,-76 319.88,-76 319.88,-56 388.38,-56 388.38,-76"/>
<text xml:space="preserve" text-anchor="middle" x="354.12" y="-62.5" font-family="Helvetica,sans-Serif" font-size="10.00">twi_config.h</text>
</a>
</g>
</g>
<!-- Node1&#45;&gt;Node6 -->
<g id="edge12_Node000001_Node000006" class="edge">
<title>Node1&#45;&gt;Node6</title>
<g id="a_edge12_Node000001_Node000006"><a xlink:title=" ">
<path fill="none" stroke="#63b8ff" d="M298.12,-167.81C303.94,-158.8 312.91,-144.62 320.12,-132 328.73,-116.95 337.8,-99.53 344.4,-86.51"/>
<polygon fill="#63b8ff" stroke="#63b8ff" points="347.45,-88.23 348.82,-77.73 341.2,-85.09 347.45,-88.23"/>
</a>
</g>
</g>
<!-- Node7 -->
<g id="Node000007" class="node">
<title>Node7</title>
<g id="a_Node000007"><a xlink:href="twi__internal_8h.html" target="_top" xlink:title="Definições internas e Máquina de Estados (FSM) do driver TWI.">
<polygon fill="white" stroke="#666666" points="179,-132 105.25,-132 105.25,-112 179,-112 179,-132"/>
<text xml:space="preserve" text-anchor="middle" x="142.12" y="-118.5" font-family="Helvetica,sans-Serif" font-size="10.00">twi_internal.h</text>
</a>
</g>
</g>
<!-- Node1&#45;&gt;Node7 -->
<g id="edge7_Node000001_Node000007" class="edge">
<title>Node1&#45;&gt;Node7</title>
<g id="a_edge7_Node000001_Node000007"><a xlink:title=" ">
<path fill="none" stroke="#63b8ff" d="M266,-167.59C241.95,-158.94 206.02,-146 179.04,-136.29"/>
<polygon fill="#63b8ff" stroke="#63b8ff" points="180.48,-133.09 169.88,-132.99 178.1,-139.67 180.48,-133.09"/>
</a>
</g>
</g>
<!-- Node8 -->
<g id="Node000008" class="node">
<title>Node8</title>
<g id="a_Node000008"><a xlink:title=" ">
<polygon fill="#e0e0e0" stroke="#999999" points="48.25,-76 0,-76 0,-56 48.25,-56 48.25,-76"/>
<text xml:space="preserve" text-anchor="middle" x="24.12" y="-62.5" font-family="Helvetica,sans-Serif" font-size="10.00">avr/io.h</text>
</a>
</g>
</g>
<!-- Node1&#45;&gt;Node8 -->
<g id="edge14_Node000001_Node000008" class="edge">
<title>Node1&#45;&gt;Node8</title>
<g id="a_edge14_Node000001_Node000008"><a xlink:title=" ">
<path fill="none" stroke="#63b8ff" d="M264.97,-175.1C225.71,-171.42 151.71,-160.94 96.12,-132 73.36,-120.15 52.19,-99.38 38.78,-84.5"/>
<polygon fill="#63b8ff" stroke="#63b8ff" points="41.69,-82.52 32.48,-77.28 36.41,-87.12 41.69,-82.52"/>
</a>
</g>
</g>
<!-- Node9 -->
<g id="Node000009" class="node">
<title>Node9</title>
<g id="a_Node000009"><a xlink:title=" ">
<polygon fill="#e0e0e0" stroke="#999999" points="180.12,-76 104.12,-76 104.12,-56 180.12,-56 180.12,-76"/>
<text xml:space="preserve" text-anchor="middle" x="142.12" y="-62.5" font-family="Helvetica,sans-Serif" font-size="10.00">avr/interrupt.h</text>
</a>
</g>
</g>
<!-- Node1&#45;&gt;Node9 -->
<g id="edge15_Node000001_Node000009" class="edge">
<title>Node1&#45;&gt;Node9</title>
<g id="a_edge15_Node000001_Node000009"><a xlink:title=" ">
<path fill="none" stroke="#63b8ff" d="M279.34,-167.62C253.65,-148.79 195.56,-106.18 163.82,-82.91"/>
<polygon fill="#63b8ff" stroke="#63b8ff" points="166.24,-80.34 156.1,-77.25 162.1,-85.99 166.24,-80.34"/>
</a>
</g>
</g>
<!-- Node10 -->
<g id="Node000010" class="node">
<title>Node10</title>
<g id="a_Node000010"><a xlink:title=" ">
<polygon fill="#e0e0e0" stroke="#999999" points="496.5,-132 443.75,-132 443.75,-112 496.5,-112 496.5,-132"/>
<text xml:space="preserve" text-anchor="middle" x="470.12" y="-118.5" font-family="Helvetica,sans-Serif" font-size="10.00">util/twi.h</text>
</a>
</g>
</g>
<!-- Node1&#45;&gt;Node10 -->
<g id="edge16_Node000001_Node000010" class="edge">
<title>Node1&#45;&gt;Node10</title>
<g id="a_edge16_Node000001_Node000010"><a xlink:title=" ">
<path fill="none" stroke="#63b8ff" d="M319.16,-168.8C349.39,-159.63 398.56,-144.71 432.53,-134.4"/>
<polygon fill="#63b8ff" stroke="#63b8ff" points="433.42,-137.79 441.97,-131.54 431.39,-131.09 433.42,-137.79"/>
</a>
</g>
</g>
<!-- Node3 -->
<g id="Node000003" class="node">
<title>Node3</title>
<g id="a_Node000003"><a xlink:href="twi__types_8h.html" target="_top" xlink:title="Definições de tipos, enumerações e assinaturas de callback do driver TWI.">
<polygon fill="white" stroke="#666666" points="264.25,-76 198,-76 198,-56 264.25,-56 264.25,-76"/>
<text xml:space="preserve" text-anchor="middle" x="231.12" y="-62.5" font-family="Helvetica,sans-Serif" font-size="10.00">twi_types.h</text>
</a>
</g>
</g>
<!-- Node2&#45;&gt;Node3 -->
<g id="edge2_Node000002_Node000003" class="edge">
<title>Node2&#45;&gt;Node3</title>
<g id="a_edge2_Node000002_Node000003"><a xlink:title=" ">
<path fill="none" stroke="#63b8ff" d="M281.5,-111.59C272.84,-103.93 260.39,-92.91 250.04,-83.75"/>
<polygon fill="#63b8ff" stroke="#63b8ff" points="252.57,-81.31 242.76,-77.3 247.93,-86.55 252.57,-81.31"/>
</a>
</g>
</g>
<!-- Node2&#45;&gt;Node5 -->
<g id="edge6_Node000002_Node000005" class="edge">
<title>Node2&#45;&gt;Node5</title>
<g id="a_edge6_Node000002_Node000005"><a xlink:title=" ">
<path fill="none" stroke="#63b8ff" d="M292.12,-111.62C292.12,-94.01 292.12,-55.59 292.12,-31.65"/>
<polygon fill="#63b8ff" stroke="#63b8ff" points="295.63,-31.87 292.13,-21.87 288.63,-31.87 295.63,-31.87"/>
</a>
</g>
</g>
<!-- Node2&#45;&gt;Node6 -->
<g id="edge5_Node000002_Node000006" class="edge">
<title>Node2&#45;&gt;Node6</title>
<g id="a_edge5_Node000002_Node000006"><a xlink:title=" ">
<path fill="none" stroke="#63b8ff" d="M302.92,-111.59C311.73,-103.93 324.38,-92.91 334.9,-83.75"/>
<polygon fill="#63b8ff" stroke="#63b8ff" points="337.07,-86.5 342.31,-77.29 332.47,-81.22 337.07,-86.5"/>
</a>
</g>
</g>
<!-- Node4 -->
<g id="Node000004" class="node">
<title>Node4</title>
<g id="a_Node000004"><a xlink:title=" ">
<polygon fill="#e0e0e0" stroke="#999999" points="174.25,-20 126,-20 126,0 174.25,0 174.25,-20"/>
<text xml:space="preserve" text-anchor="middle" x="150.12" y="-6.5" font-family="Helvetica,sans-Serif" font-size="10.00">stdint.h</text>
</a>
</g>
</g>
<!-- Node3&#45;&gt;Node4 -->
<g id="edge3_Node000003_Node000004" class="edge">
<title>Node3&#45;&gt;Node4</title>
<g id="a_edge3_Node000003_Node000004"><a xlink:title=" ">
<path fill="none" stroke="#63b8ff" d="M217.02,-55.59C205.13,-47.67 187.86,-36.16 173.85,-26.82"/>
<polygon fill="#63b8ff" stroke="#63b8ff" points="175.87,-23.95 165.6,-21.32 171.98,-29.78 175.87,-23.95"/>
</a>
</g>
</g>
<!-- Node3&#45;&gt;Node5 -->
<g id="edge4_Node000003_Node000005" class="edge">
<title>Node3&#45;&gt;Node5</title>
<g id="a_edge4_Node000003_Node000005"><a xlink:title=" ">
<path fill="none" stroke="#63b8ff" d="M241.75,-55.59C250.41,-47.93 262.86,-36.91 273.21,-27.75"/>
<polygon fill="#63b8ff" stroke="#63b8ff" points="275.32,-30.55 280.49,-21.3 270.68,-25.31 275.32,-30.55"/>
</a>
</g>
</g>
<!-- Node7&#45;&gt;Node3 -->
<g id="edge8_Node000007_Node000003" class="edge">
<title>Node7&#45;&gt;Node3</title>
<g id="a_edge8_Node000007_Node000003"><a xlink:title=" ">
<path fill="none" stroke="#63b8ff" d="M157.63,-111.59C170.95,-103.51 190.4,-91.71 205.95,-82.27"/>
<polygon fill="#63b8ff" stroke="#63b8ff" points="207.47,-85.44 214.21,-77.26 203.84,-79.46 207.47,-85.44"/>
</a>
</g>
</g>
<!-- Node7&#45;&gt;Node4 -->
<g id="edge9_Node000007_Node000004" class="edge">
<title>Node7&#45;&gt;Node4</title>
<g id="a_edge9_Node000007_Node000004"><a xlink:title=" ">
<path fill="none" stroke="#63b8ff" d="M126.95,-111.59C109.61,-99.55 84.87,-77.64 95.12,-56 100.87,-43.88 111.65,-33.94 122.16,-26.51"/>
<polygon fill="#63b8ff" stroke="#63b8ff" points="123.82,-29.6 130.31,-21.23 120.02,-23.73 123.82,-29.6"/>
</a>
</g>
</g>
<!-- Node7&#45;&gt;Node8 -->
<g id="edge10_Node000007_Node000008" class="edge">
<title>Node7&#45;&gt;Node8</title>
<g id="a_edge10_Node000007_Node000008"><a xlink:title=" ">
<path fill="none" stroke="#63b8ff" d="M121.57,-111.59C103.24,-103.21 76.14,-90.8 55.17,-81.21"/>
<polygon fill="#63b8ff" stroke="#63b8ff" points="56.77,-78.09 46.22,-77.11 53.85,-84.45 56.77,-78.09"/>
</a>
</g>
</g>
<!-- Node7&#45;&gt;Node9 -->
<g id="edge11_Node000007_Node000009" class="edge">
<title>Node7&#45;&gt;Node9</title>
<g id="a_edge11_Node000007_Node000009"><a xlink:title=" ">
<path fill="none" stroke="#63b8ff" d="M142.12,-111.59C142.12,-105.01 142.12,-95.96 142.12,-87.73"/>
<polygon fill="#63b8ff" stroke="#63b8ff" points="145.63,-87.81 142.13,-77.81 138.63,-87.81 145.63,-87.81"/>
</a>
</g>
</g>
</g>
</svg>
